<!DOCTYPE svg PUBLIC "-//W3C//DTD SVG 20010904//EN" "http://www.w3.org/TR/2001/REC-SVG-20010904/DTD/svg10.dtd">
<svg version="1.0" xmlns="http://www.w3.org/2000/svg" width="574px" height="211px" viewBox="0 0 5740 2110" preserveAspectRatio="xMidYMid meet">
<g id="layer101" fill="#0a0a0a" stroke="none">
<path d="M0 1055 l0 -1055 2870 0 2870 0 0 1055 0 1055 -2870 0 -2870 0 0 -1055z"/>
</g>
<g id="layer102" fill="#2f2f2f" stroke="none">
<path d="M0 1055 l0 -1055 2870 0 2870 0 0 1055 0 1055 -2870 0 -2870 0 0 -1055z m3520 548 l0 -128 45 -18 c58 -24 115 -87 115 -128 0 -57 -35 -100 -118 -143 -42 -22 -53 -14 -17 11 15 10 47 35 71 57 52 46 57 79 18 126 -22 26 -90 70 -108 70 -3 0 -3 -51 1 -112 3 -66 2 -110 -3 -105 -5 5 -12 52 -16 105 -4 53 -8 104 -9 112 -7 48 2 280 11 280 6 0 10 -49 10 -127z m514 -26 l21 -82 85 -3 c103 -4 130 2 130 27 0 52 -80 103 -182 116 -27 3 -48 11 -48 17 0 17 109 -1 167 -27 51 -23 93 -70 93 -104 0 -35 -31 -51 -102 -51 -37 0 -68 -2 -68 -4 0 -2 18 -22 40 -44 46 -46 51 -79 20 -129 -21 -36 -80 -78 -122 -88 -42 -11 -34 9 12 29 83 36 120 101 90 156 -12 23 -95 82 -103 74 -3 -3 1 -24 9 -46 16 -45 18 -88 5 -88 -8 0 -74 214 -86 282 -7 35 1 66 13 53 3 -3 15 -43 26 -88z m-181 20 c-4 -7 -21 -31 -37 -54 -26 -39 -28 -48 -24 -116 3 -59 10 -86 36 -137 37 -71 37 -88 -2 -37 -38 49 -56 111 -56 189 0 74 8 97 48 141 26 27 50 37 35 14z m566 -23 c54 -68 53 -181 -2 -272 -17 -30 -40 -58 -49 -63 -24 -13 -22 -4 6 34 39 52 66 118 66 167 0 45 -28 121 -49 134 -6 4 -11 11 -11 17 0 17 18 9 39 -17z m-3829 -341 l0 -128 45 -18 c58 -24 115 -87 115 -128 0 -57 -35 -100 -118 -143 -42 -22 -53 -14 -17 11 15 10 47 35 71 57 52 46 57 79 18 126 -22 26 -90 70 -108 70 -3 0 -3 -51 1 -112 3 -66 2 -110 -3 -105 -5 5 -12 52 -16 105 -4 53 -8 104 -9 112 -7 48 2 280 11 280 6 0 10 -49 10 -127z m888 -213 c1 -247 -14 -218 -21 39 -3 128 -2 241 1 250 10 24 19 -111 20 -289z m186 167 l21 -82 85 -3 c103 -4 130 2 130 27 0 52 -80 103 -182 116 -27 3 -48 11 -48 17 0 17 109 -1 167 -27 52 -24 93 -70 93 -107 0 -30 -40 -48 -107 -48 -35 0 -63 -2 -63 -4 0 -2 18 -22 40 -44 46 -46 51 -79 20 -129 -21 -36 -80 -78 -122 -88 -42 -11 -34 9 12 29 83 36 120 101 90 156 -12 23 -95 82 -103 74 -3 -3 1 -24 9 -46 16 -45 18 -88 5 -88 -8 0 -74 214 -86 282 -7 35 1 66 13 53 3 -3 15 -43 26 -88z m-571 -44 l28 -48 87 -2 87 -2 -3 38 c-2 22 1 48 7 60 9 17 9 20 -2 15 -10 -3 -16 4 -19 20 -6 31 7 55 21 41 15 -15 32 -147 25 -202 -8 -64 -46 -193 -57 -193 -4 0 -5 -4 -2 -10 3 -5 1 -10 -5 -10 -11 0 -8 19 16 104 28 98 18 116 -64 116 -18 0 -41 5 -52 12 -10 7 -22 10 -25 6 -6 -6 34 -99 48 -109 4 -3 9 -14 11 -25 2 -11 14 -36 26 -57 12 -20 18 -37 13 -37 -9 0 -59 91 -56 102 2 4 -2 8 -7 8 -5 0 -10 4 -10 10 0 5 -11 26 -25 46 -14 21 -24 43 -21 49 2 6 -5 17 -15 23 -10 7 -19 21 -19 32 0 11 -5 20 -10 20 -14 0 -50 78 -49 105 0 14 7 7 22 -22 12 -22 35 -63 50 -90z m-170 84 c-4 -7 -21 -31 -37 -54 -26 -39 -28 -48 -24 -116 3 -59 10 -86 36 -137 37 -71 37 -88 -2 -37 -38 49 -56 111 -56 189 0 74 8 97 48 141 26 27 50 37 35 14z m1126 -43 c54 -68 53 -181 -2 -272 -17 -30 -40 -58 -49 -63 -24 -13 -22 -4 6 34 39 52 66 118 66 167 0 45 -28 121 -49 134 -6 4 -11 11 -11 17 0 17 18 9 39 -17z m379 -61 c-32 -2 -84 -2 -115 0 -32 2 -6 3 57 3 63 0 89 -1 58 -3z m2917 -63 c4 -7 -457 -10 -1375 -10 -918 0 -1379 3 -1375 10 9 14 2741 14 2750 0z m-2915 -47 c3 -4 -15 -9 -40 -11 -53 -4 -132 6 -126 16 6 10 160 5 166 -5z m350 -314 c107 -46 141 -133 79 -203 -35 -41 -94 -79 -111 -74 -6 2 4 15 23 28 19 13 49 37 67 54 38 36 43 80 11 120 -19 24 -86 66 -106 66 -5 0 -7 -48 -5 -107 2 -77 0 -104 -7 -93 -6 8 -11 56 -11 106 0 50 -3 93 -6 97 -8 8 -5 268 4 281 4 6 8 -49 10 -121 l3 -133 49 -21z m1630 0 c107 -46 141 -133 79 -203 -35 -41 -94 -79 -111 -74 -6 2 4 15 23 28 19 13 49 37 67 54 38 36 43 80 11 120 -19 24 -87 66 -107 66 -5 0 -7 -48 -5 -107 3 -78 1 -104 -6 -93 -6 8 -11 56 -11 106 0 50 -3 93 -6 97 -8 8 -5 268 4 281 4 6 8 -49 10 -121 l3 -133 49 -21z m-790 -11 c0 -141 -4 -229 -10 -233 -7 -4 -10 79 -10 242 0 164 4 243 10 233 6 -9 10 -113 10 -242z m-396 100 c10 -46 23 -86 30 -90 21 -14 171 -9 191 6 51 37 -44 122 -149 133 -31 3 -59 10 -63 16 -11 18 120 1 164 -21 49 -26 93 -75 93 -107 0 -36 -27 -50 -99 -52 -36 -1 -67 -2 -69 -3 -2 0 15 -17 38 -38 46 -45 53 -86 21 -139 -19 -30 -82 -74 -128 -88 -35 -10 -27 9 11 27 18 9 50 31 70 48 30 26 36 39 36 70 0 33 -6 44 -46 79 -26 23 -51 41 -55 41 -11 0 -11 -22 0 -52 18 -51 22 -78 9 -78 -19 0 -104 290 -93 317 10 28 21 9 39 -69z m794 46 c11 -139 6 -221 -22 -306 -15 -49 -32 -88 -37 -88 -6 0 -7 5 -3 12 4 6 8 23 10 37 1 14 9 57 18 96 8 38 13 71 11 74 -3 2 -39 6 -81 8 -71 4 -76 3 -69 -14 4 -10 8 -24 8 -30 0 -7 3 -13 7 -13 12 0 40 -69 30 -75 -5 -3 -12 6 -16 20 -3 14 -10 25 -14 25 -9 0 -22 33 -25 61 -1 9 -12 27 -24 40 -27 29 -58 78 -63 99 -2 8 -6 17 -10 20 -3 3 -10 18 -14 34 -5 21 -4 27 5 22 6 -4 11 -16 11 -26 0 -10 3 -20 8 -22 4 -1 22 -28 41 -59 32 -54 35 -56 80 -57 25 -1 63 -4 83 -8 42 -6 64 2 50 19 -11 14 -23 152 -14 161 12 13 27 -2 30 -30z m1044 -79 c1 -55 0 -120 -4 -144 -10 -63 -48 -171 -60 -171 -6 0 -8 6 -5 14 3 8 9 31 13 50 3 20 9 34 13 32 3 -2 6 25 6 61 l0 65 -72 5 c-40 2 -73 2 -73 -1 0 -4 23 -51 50 -106 28 -55 50 -103 50 -107 -1 -16 -40 43 -40 60 0 9 -5 17 -11 17 -5 0 -7 5 -4 10 3 6 2 10 -4 10 -5 0 -25 30 -44 68 -19 37 -51 94 -71 126 -20 33 -36 65 -37 70 0 6 -2 19 -4 29 -2 9 -2 17 0 17 5 0 89 -154 88 -161 -1 -3 18 -6 43 -7 24 0 66 -3 93 -7 l49 -7 -5 69 c-2 37 -5 78 -7 90 -2 12 1 20 5 17 5 -3 9 0 9 7 0 8 3 9 9 4 6 -6 11 -55 13 -110z m-2006 73 c-56 -77 -57 -81 -54 -154 3 -60 10 -85 41 -145 l37 -74 -34 38 c-43 48 -66 113 -66 188 0 69 12 104 48 142 31 33 51 36 28 5z m1630 0 c-56 -77 -57 -81 -54 -154 3 -60 10 -85 41 -145 l37 -74 -35 39 c-41 46 -65 117 -65 192 0 64 13 100 48 137 31 33 51 36 28 5z m-489 -39 c21 -33 28 -57 31 -109 5 -78 -15 -133 -68 -193 -40 -47 -53 -40 -16 8 42 55 66 115 66 170 0 49 -27 126 -49 139 -14 9 -14 26 -1 26 5 0 22 -19 37 -41z m1026 23 c48 -53 62 -174 28 -248 -20 -43 -80 -118 -89 -110 -3 3 7 21 22 41 67 87 85 189 46 265 -11 21 -24 41 -30 45 -12 8 -13 25 -2 25 5 0 16 -8 25 -18z m-1286 -358 c-7 -8 -46 59 -40 69 3 4 14 -8 25 -28 10 -21 17 -39 15 -41z"/>
<path d="M1055 1180 c3 -5 8 -10 11 -10 3 0 2 5 -1 10 -3 6 -8 10 -11 10 -3 0 -2 -4 1 -10z"/>
<path d="M1273 1073 c4 -3 10 -3 14 0 3 4 0 7 -7 7 -7 0 -10 -3 -7 -7z"/>
<path d="M4815 740 c3 -5 8 -10 11 -10 3 0 2 5 -1 10 -3 6 -8 10 -11 10 -3 0 -2 -4 1 -10z"/>
</g>
<g id="layer103" fill="#515151" stroke="none">
<path d="M0 1055 l0 -1055 2870 0 2870 0 0 1055 0 1055 -2870 0 -2870 0 0 -1055z m3521 548 l0 -128 59 -28 c96 -45 127 -125 76 -191 -23 -31 -123 -93 -132 -83 -3 3 19 24 50 46 92 68 106 106 60 161 -22 25 -90 70 -107 70 -3 0 -2 -50 1 -112 6 -140 -12 -141 -22 -1 -4 54 -7 105 -8 113 -5 70 4 280 12 280 6 0 10 -50 11 -127z m513 -26 l21 -82 96 -3 c77 -2 99 0 109 13 35 42 -54 115 -152 124 -39 4 -63 11 -66 20 -7 20 111 6 166 -21 46 -22 92 -74 92 -103 0 -40 -29 -55 -104 -55 l-70 0 36 -36 c43 -41 52 -64 44 -108 -10 -54 -109 -132 -159 -124 -18 3 -14 8 23 27 104 54 137 119 87 173 -29 31 -76 63 -83 55 -3 -2 1 -30 9 -61 10 -35 11 -58 5 -62 -5 -3 -11 -4 -13 -2 -6 6 -73 231 -80 271 -7 38 0 75 12 63 4 -4 16 -44 27 -89z m-174 27 c0 -3 -15 -23 -32 -45 -29 -36 -33 -49 -36 -112 -4 -68 -2 -77 36 -150 42 -80 41 -100 -2 -44 -31 41 -45 77 -57 150 -12 72 1 125 42 172 28 32 49 44 49 29z m586 -81 c31 -80 7 -187 -60 -268 -39 -48 -41 -22 -2 35 59 85 71 162 37 236 -10 23 -24 45 -30 48 -6 4 -11 14 -11 23 0 28 48 -25 66 -74z m-3855 -290 l0 -128 59 -28 c67 -32 100 -74 100 -131 0 -28 -8 -44 -38 -74 -37 -37 -109 -79 -119 -69 -2 3 20 24 51 46 92 68 106 106 60 161 -22 25 -90 70 -107 70 -3 0 -2 -50 1 -112 6 -140 -12 -141 -22 -1 -4 54 -7 105 -8 113 -5 70 4 280 12 280 6 0 10 -50 11 -127z m888 -158 c0 -126 -3 -226 -9 -235 -9 -13 -10 -13 -10 0 1 8 -2 115 -4 237 -3 123 -3 230 1 240 15 39 22 -31 22 -242z m-157 64 c2 -116 -14 -202 -50 -274 -24 -48 -25 -13 -3 70 30 107 28 123 -11 129 -90 14 -118 16 -118 8 0 -4 23 -52 50 -105 28 -53 50 -103 50 -110 -1 -19 -36 31 -76 108 -20 39 -58 108 -85 155 -27 47 -51 101 -55 120 -5 29 2 22 41 -45 25 -44 49 -83 53 -86 4 -4 46 -10 93 -13 l85 -7 -7 72 c-5 39 -10 74 -13 76 -3 3 -1 15 5 25 10 18 13 18 25 6 11 -11 15 -44 16 -129z m342 48 l21 -82 96 -3 c77 -2 99 0 109 13 35 42 -54 115 -152 124 -39 4 -63 11 -66 20 -7 20 111 6 166 -21 46 -22 92 -74 92 -103 0 -40 -29 -55 -104 -55 l-70 0 36 -36 c43 -41 52 -64 44 -108 -10 -54 -109 -132 -159 -124 -18 3 -14 8 23 27 104 54 137 119 87 173 -29 31 -76 63 -83 55 -3 -2 1 -30 9 -61 10 -35 11 -58 5 -62 -5 -3 -11 -4 -13 -2 -6 6 -73 231 -80 271 -7 38 0 75 12 63 4 -4 16 -44 27 -89z m-734 47 c0 -3 -15 -23 -32 -45 -29 -36 -33 -49 -36 -112 -4 -68 -2 -77 36 -150 42 -80 41 -100 -2 -44 -31 41 -45 77 -57 150 -12 72 1 125 42 172 28 32 49 44 49 29z m1146 -101 c31 -80 7 -187 -60 -268 -39 -48 -41 -22 -2 35 59 85 71 162 37 236 -10 23 -24 45 -30 48 -6 4 -11 14 -11 23 0 28 48 -25 66 -74z m399 -3 c4 -6 -34 -10 -107 -10 -77 0 -108 3 -98 10 20 13 197 13 205 0z m2870 -70 c4 -7 -457 -10 -1374 -10 -914 0 -1381 3 -1381 10 0 14 2746 14 2755 0z m-2905 -45 c0 -12 -14 -15 -67 -15 -38 0 -78 3 -90 6 -45 12 -10 24 73 24 68 0 84 -3 84 -15z m340 -314 c70 -32 110 -80 110 -134 0 -25 -8 -51 -18 -63 -27 -33 -103 -84 -126 -84 -14 0 -2 13 42 45 89 65 102 101 58 160 -21 27 -102 75 -109 64 -2 -2 0 -47 3 -99 6 -102 3 -131 -11 -108 -5 7 -9 56 -9 109 0 53 -3 99 -7 102 -8 9 -4 268 5 282 4 5 8 -49 10 -121 l3 -131 49 -22z m1619 5 c19 -6 54 -29 78 -51 38 -37 43 -47 43 -86 0 -27 -7 -52 -18 -65 -27 -33 -103 -84 -126 -84 -14 0 -2 13 42 45 89 65 102 101 58 160 -21 27 -102 75 -109 64 -2 -2 0 -47 3 -99 6 -101 2 -138 -11 -104 -4 10 -8 60 -8 110 -1 50 -4 94 -8 97 -8 9 -4 268 5 282 4 5 9 -51 12 -125 l5 -134 34 -10z m-779 -9 c0 -133 -4 -238 -10 -247 -6 -10 -10 71 -10 238 0 166 3 251 10 247 6 -4 10 -94 10 -238z m-395 91 l20 -83 81 -8 c132 -13 168 16 100 82 -35 34 -107 61 -163 61 -18 0 -33 5 -33 10 0 15 92 12 141 -5 58 -21 119 -80 119 -116 0 -41 -33 -59 -106 -59 l-62 0 39 -39 c50 -49 54 -102 13 -151 -25 -29 -110 -80 -134 -80 -22 0 -8 20 23 34 19 7 50 28 70 46 31 26 37 39 37 70 0 33 -6 44 -46 79 -68 60 -72 58 -49 -28 14 -53 11 -82 -5 -64 -12 12 -77 232 -85 287 -6 36 -4 46 7 46 9 0 20 -28 33 -82z m798 -4 c5 -43 5 -106 2 -139 -8 -74 -46 -197 -62 -202 -26 -9 -80 75 -216 339 -48 93 -25 89 28 -6 28 -49 54 -85 61 -82 6 2 44 0 85 -5 40 -5 73 -8 74 -6 1 1 -2 40 -6 86 -5 46 -6 88 -3 93 15 24 30 -6 37 -78z m1040 0 c5 -43 5 -106 2 -139 -8 -74 -46 -197 -62 -202 -26 -9 -80 75 -216 339 -48 93 -25 89 28 -6 28 -49 54 -85 61 -82 6 2 44 0 85 -5 40 -5 73 -8 74 -6 1 1 -2 40 -6 86 -5 46 -6 88 -3 93 15 24 30 -6 37 -78z m-1999 54 c-4 -7 -19 -28 -32 -46 -48 -63 -40 -180 19 -276 35 -55 32 -71 -5 -31 -63 68 -88 234 -45 305 21 36 46 60 62 60 4 0 5 -6 1 -12z m1630 0 c-4 -7 -19 -28 -32 -46 -48 -63 -40 -180 19 -276 35 -55 32 -71 -5 -31 -63 68 -88 234 -45 305 21 36 46 60 62 60 4 0 5 -6 1 -12z m-511 -26 c74 -81 58 -253 -32 -336 -40 -38 -39 -28 3 34 19 28 40 66 46 86 19 55 8 136 -23 183 -15 22 -27 43 -27 46 0 11 18 4 33 -13z m1040 0 c74 -81 58 -253 -32 -336 -40 -38 -39 -28 3 34 19 28 40 66 46 86 19 55 8 136 -23 183 -15 22 -27 43 -27 46 0 11 18 4 33 -13z"/>
<path d="M3842 661 c11 -30 103 -201 107 -201 8 0 41 139 41 171 0 24 -4 27 -52 33 -73 8 -100 8 -96 -3z"/>
<path d="M4882 661 c11 -30 103 -201 107 -201 8 0 41 139 41 171 0 24 -4 27 -52 33 -73 8 -100 8 -96 -3z"/>
</g>
<g id="layer104" fill="#727272" stroke="none">
<path d="M0 1055 l0 -1055 2870 0 2870 0 0 1055 0 1055 -2870 0 -2870 0 0 -1055z m3520 550 l0 -124 56 -28 c68 -33 104 -81 104 -137 0 -32 -7 -45 -38 -76 -39 -36 -109 -76 -119 -67 -2 3 20 24 51 46 92 68 104 100 60 158 -20 26 -88 73 -107 73 -2 0 -1 -51 1 -112 2 -64 1 -109 -4 -105 -25 23 -37 497 -13 497 5 0 9 -53 9 -125z m515 -26 l20 -84 96 -3 c78 -2 98 0 109 13 33 40 -60 113 -158 124 -34 4 -57 11 -60 20 -7 21 110 7 165 -20 72 -35 110 -97 84 -137 -12 -19 -79 -32 -126 -25 l-40 6 43 -41 c55 -55 58 -103 10 -157 -37 -42 -100 -78 -131 -73 -18 3 -12 9 29 30 61 32 104 80 104 115 0 17 -15 41 -44 69 -51 52 -72 57 -61 17 20 -74 22 -93 13 -99 -5 -3 -12 -4 -14 -1 -11 11 -74 236 -81 286 -10 86 17 60 42 -40z m-175 25 c0 -3 -15 -23 -32 -46 -31 -38 -33 -45 -33 -122 0 -75 3 -86 37 -148 38 -69 38 -86 0 -45 -52 56 -85 193 -62 262 17 51 90 132 90 99z m582 -68 c16 -31 19 -53 16 -105 -4 -72 -23 -118 -67 -172 -43 -51 -48 -29 -7 31 64 93 71 186 21 262 -14 21 -25 43 -25 49 0 20 41 -23 62 -65z m-3852 -301 l0 -124 56 -28 c68 -33 104 -81 104 -137 0 -32 -7 -45 -38 -76 -39 -36 -109 -76 -119 -67 -2 3 20 24 51 46 92 68 104 100 60 158 -20 26 -88 73 -107 73 -2 0 -1 -51 1 -112 2 -64 1 -109 -4 -105 -25 23 -37 497 -13 497 5 0 9 -53 9 -125z m890 -155 c0 -128 -4 -231 -10 -240 -5 -8 -10 -10 -10 -5 0 6 -2 113 -5 238 -2 124 -2 234 2 243 16 42 23 -27 23 -236z m-157 54 c1 -103 -3 -131 -26 -206 -15 -49 -32 -88 -37 -88 -14 0 -13 17 10 101 30 112 29 117 -27 124 -27 3 -60 8 -75 10 -16 3 -28 2 -28 0 0 -3 23 -50 50 -105 51 -102 63 -137 36 -110 -13 13 -96 162 -178 319 -47 91 -32 104 18 16 25 -44 48 -83 52 -86 4 -4 44 -9 90 -12 l82 -6 0 37 c0 60 -12 112 -23 105 -11 -6 -3 11 16 35 8 11 13 10 25 -1 10 -11 14 -44 15 -133z m342 55 l20 -84 96 -3 c78 -2 98 0 109 13 33 40 -60 113 -158 124 -34 4 -57 11 -60 20 -7 21 110 7 165 -20 72 -35 110 -97 84 -137 -11 -19 -78 -32 -126 -26 l-40 6 31 -29 c64 -57 71 -112 22 -168 -34 -39 -95 -75 -128 -75 -33 0 -23 14 25 33 54 23 105 78 105 114 0 17 -15 40 -44 69 -51 52 -72 57 -61 17 20 -74 22 -93 13 -99 -5 -3 -12 -4 -14 -1 -11 11 -74 236 -81 286 -10 86 17 60 42 -40z m-735 45 c0 -3 -15 -23 -32 -46 -31 -38 -33 -45 -33 -122 0 -75 3 -86 37 -148 38 -69 38 -86 0 -45 -52 56 -85 193 -62 262 17 51 90 132 90 99z m1142 -88 c16 -31 19 -53 16 -105 -4 -72 -23 -118 -67 -172 -43 -51 -48 -29 -7 31 64 93 71 186 21 262 -14 21 -25 43 -25 49 0 20 41 -23 62 -65z m398 -21 c0 -12 -163 -19 -200 -9 -24 6 -24 7 -5 15 28 11 205 6 205 -6z m2880 -65 c0 -7 -467 -10 -1380 -10 -913 0 -1380 3 -1380 10 0 7 467 10 1380 10 913 0 1380 -3 1380 -10z m-2910 -45 c0 -12 -15 -15 -74 -15 -77 0 -106 6 -106 21 0 5 41 9 90 9 73 0 90 -3 90 -15z m326 -305 c20 -7 56 -31 80 -54 40 -38 44 -47 44 -89 0 -40 -5 -51 -35 -82 -30 -30 -102 -75 -120 -75 -16 0 1 19 46 50 88 60 108 102 73 156 -15 23 -90 74 -108 74 -5 0 -6 -47 -5 -104 4 -99 -4 -146 -15 -95 -15 71 -21 463 -8 483 4 6 8 -48 10 -121 l3 -132 35 -11z m1630 0 c20 -7 56 -31 80 -54 40 -38 44 -47 44 -89 0 -40 -5 -51 -35 -82 -30 -30 -102 -75 -120 -75 -16 0 1 19 46 50 88 60 108 102 73 156 -16 24 -90 74 -110 74 -5 0 -7 -43 -3 -102 5 -96 -3 -152 -15 -97 -14 66 -21 464 -8 483 4 6 8 -48 10 -121 l3 -132 35 -11z m-776 -20 c0 -131 -4 -241 -9 -244 -9 -6 -22 442 -14 474 15 59 23 -17 23 -230z m-406 158 c3 -13 11 -50 18 -83 l14 -60 104 0 c99 0 105 1 108 21 5 33 -65 90 -127 103 -29 6 -63 11 -76 11 -26 0 -34 14 -12 23 26 10 129 -12 171 -37 49 -29 76 -64 76 -100 0 -37 -35 -56 -103 -56 l-59 0 36 -40 c48 -53 50 -104 6 -154 -37 -41 -113 -81 -138 -71 -13 5 -4 13 40 36 98 50 123 108 72 169 -25 29 -84 68 -84 54 0 -3 7 -31 16 -61 11 -39 13 -58 5 -66 -7 -7 -14 -2 -22 19 -20 52 -79 267 -79 291 0 30 28 30 34 1z m809 -49 c11 -89 2 -191 -23 -274 -27 -85 -33 -92 -61 -73 -34 22 -225 375 -217 400 2 6 25 -26 51 -73 l48 -84 67 -2 c37 -1 76 -5 88 -7 19 -5 20 -2 17 52 -3 31 -8 69 -13 83 -5 17 -4 31 3 38 21 21 32 5 40 -60z m1040 0 c11 -89 2 -191 -23 -274 -27 -85 -33 -92 -61 -73 -34 22 -225 375 -217 400 2 6 25 -26 51 -73 l48 -84 67 -2 c37 -1 77 -5 90 -8 19 -5 22 -2 18 17 -10 48 -16 155 -9 161 17 17 29 -4 36 -64z m-1993 42 c0 -5 -7 -14 -16 -22 -8 -7 -25 -31 -36 -53 -31 -60 -21 -145 26 -231 41 -76 42 -79 18 -66 -10 5 -31 33 -47 63 -40 73 -48 194 -16 256 24 46 71 82 71 53z m1630 3 c0 -3 -15 -23 -32 -46 -31 -37 -33 -45 -33 -117 0 -69 3 -82 38 -144 42 -78 43 -81 19 -68 -10 5 -31 33 -47 63 -40 73 -48 194 -16 256 11 22 29 46 38 51 20 12 33 14 33 5z m-518 -31 c74 -85 61 -249 -27 -336 -15 -15 -30 -26 -32 -23 -2 2 14 32 36 66 61 95 67 185 16 261 -14 21 -25 41 -25 44 0 11 18 4 32 -12z m1040 0 c74 -85 61 -249 -27 -336 -15 -15 -30 -26 -32 -23 -2 2 14 32 36 66 61 95 67 185 16 261 -14 21 -25 41 -25 44 0 11 18 4 32 -12z"/>
<path d="M3841 664 c19 -43 104 -204 108 -204 7 0 41 139 41 167 0 12 -3 24 -7 26 -16 10 -145 19 -142 11z"/>
<path d="M4881 664 c19 -43 104 -204 108 -204 7 0 41 139 41 167 0 12 -3 24 -7 26 -16 10 -145 19 -142 11z"/>
</g>
<g id="layer105" fill="#959595" stroke="none">
<path d="M0 1055 l0 -1055 2870 0 2870 0 0 1055 0 1055 -2870 0 -2870 0 0 -1055z m3520 551 l0 -125 57 -28 c135 -67 139 -182 7 -259 -68 -40 -74 -23 -8 27 32 25 65 57 73 71 14 24 14 30 -2 62 -17 37 -105 103 -117 89 -3 -5 -4 -50 -1 -101 6 -96 -1 -151 -13 -102 -21 87 -25 490 -5 490 5 0 9 -53 9 -124z m516 -23 l19 -88 87 -3 c83 -3 128 7 128 28 0 16 -52 71 -84 87 -17 9 -55 19 -85 22 -34 4 -56 11 -59 20 -7 21 116 7 166 -18 76 -39 113 -109 77 -145 -20 -19 -76 -30 -115 -22 -17 3 -30 3 -30 0 0 -3 16 -20 35 -38 28 -27 35 -41 35 -72 0 -46 -25 -87 -71 -118 -46 -31 -97 -48 -105 -35 -3 6 -4 11 -3 12 2 1 26 13 52 26 56 28 97 73 97 105 0 13 -9 35 -20 49 -25 31 -79 71 -86 64 -3 -3 2 -29 10 -58 20 -66 20 -71 -1 -67 -11 2 -27 40 -54 133 -40 137 -49 205 -26 205 9 0 20 -32 33 -87z m-176 23 c0 -2 -16 -28 -36 -57 -34 -51 -36 -58 -32 -121 3 -53 11 -81 41 -138 20 -39 37 -74 37 -77 0 -19 -61 56 -79 96 -45 105 -36 211 21 270 27 27 48 39 48 27z m570 -43 c22 -32 25 -48 25 -117 0 -88 -13 -125 -64 -187 -44 -51 -49 -27 -8 33 67 98 71 195 11 274 -23 31 -23 47 -1 38 7 -2 23 -21 37 -41z m-3840 -327 l0 -125 57 -28 c135 -67 139 -182 7 -259 -68 -40 -74 -23 -8 27 32 25 65 57 73 71 14 24 14 30 -2 62 -17 37 -105 103 -117 89 -3 -5 -4 -50 -1 -101 6 -96 -1 -151 -13 -102 -21 87 -25 490 -5 490 5 0 9 -53 9 -124z m890 -161 c0 -132 -4 -236 -10 -245 -5 -8 -10 -10 -10 -5 -5 112 -8 475 -4 489 16 51 24 -27 24 -239z m-158 124 c5 -41 6 -102 3 -136 -5 -66 -50 -223 -64 -223 -22 0 -56 45 -115 155 -35 66 -78 146 -96 177 -17 32 -30 68 -28 80 2 18 11 9 37 -44 55 -105 54 -105 150 -111 l83 -5 -6 66 c-3 37 -6 71 -6 75 0 5 -5 5 -12 1 -7 -5 -8 -2 -3 7 34 59 48 48 57 -42z m344 -6 l19 -88 87 -3 c83 -3 128 7 128 28 0 16 -52 71 -84 87 -17 9 -55 19 -85 22 -34 4 -56 11 -59 20 -7 21 116 7 166 -18 76 -39 113 -109 77 -145 -20 -19 -76 -30 -115 -22 -17 3 -30 3 -30 0 0 -3 16 -20 35 -38 28 -27 35 -41 35 -72 0 -46 -25 -87 -71 -118 -46 -31 -97 -48 -105 -35 -3 6 -4 11 -3 12 2 1 26 13 52 26 56 28 97 73 97 105 0 13 -9 35 -20 49 -25 31 -79 71 -86 64 -3 -3 2 -29 10 -58 20 -66 20 -71 -1 -67 -11 2 -27 40 -54 133 -40 137 -49 205 -26 205 9 0 20 -32 33 -87z m-736 43 c0 -2 -16 -28 -36 -57 -34 -51 -36 -58 -32 -121 3 -53 11 -81 41 -138 20 -39 37 -74 37 -77 0 -19 -61 56 -79 96 -45 105 -36 211 21 270 27 27 48 39 48 27z m1129 -62 c30 -43 39 -133 22 -197 -15 -51 -75 -137 -97 -137 -11 0 -4 16 25 56 71 99 77 199 15 280 -23 31 -23 47 -1 38 7 -2 23 -20 36 -40z m419 -46 c-5 -14 -164 -24 -207 -13 -50 13 3 25 107 25 79 0 103 -3 100 -12z m2872 -68 c0 -7 -467 -10 -1380 -10 -913 0 -1380 3 -1380 10 0 7 467 10 1380 10 913 0 1380 -3 1380 -10z m-2910 -45 c0 -12 -15 -15 -74 -15 -77 0 -106 6 -106 21 0 5 41 9 90 9 73 0 90 -3 90 -15z m294 -66 c3 -17 6 -76 6 -130 l0 -99 38 -15 c47 -20 91 -61 108 -101 27 -63 -14 -127 -114 -178 -40 -21 -57 -11 -22 13 115 76 136 110 105 167 -16 31 -86 84 -110 84 -4 0 -6 -47 -3 -105 3 -58 1 -108 -3 -111 -5 -3 -11 5 -13 18 -4 19 -7 55 -18 208 -1 8 0 75 0 148 2 126 12 168 26 101z m1630 0 c3 -17 6 -76 6 -130 l0 -99 38 -15 c47 -20 91 -61 108 -101 27 -63 -14 -127 -114 -178 -40 -21 -57 -11 -22 13 115 76 136 110 105 167 -16 31 -86 84 -110 84 -4 0 -6 -47 -3 -105 3 -58 1 -108 -3 -111 -11 -6 -16 23 -24 126 -3 47 -6 92 -7 100 -1 8 0 75 0 148 2 126 12 168 26 101z m-744 -251 c0 -134 -4 -249 -9 -256 -9 -15 -24 459 -15 483 18 47 24 -9 24 -227z m-402 137 c2 -17 10 -54 18 -82 l15 -53 100 0 c112 0 128 10 92 58 -26 37 -91 68 -158 77 -74 9 -70 31 5 27 136 -8 243 -108 183 -174 -12 -14 -31 -18 -82 -18 l-65 0 37 -38 c50 -51 52 -104 7 -156 -31 -35 -103 -76 -133 -76 -31 0 -18 15 38 44 106 55 123 112 55 178 -59 55 -70 51 -53 -18 11 -40 12 -59 4 -67 -6 -6 -13 -9 -15 -6 -11 10 -86 284 -86 311 0 41 34 35 38 -7z m805 -31 c12 -86 2 -210 -24 -284 -12 -36 -25 -69 -30 -74 -16 -18 -56 23 -94 96 -21 40 -65 120 -97 178 -32 57 -58 113 -58 122 0 20 20 25 20 6 1 -23 85 -155 96 -151 6 2 43 0 83 -5 l71 -8 0 45 c0 25 -4 63 -9 83 -6 24 -5 40 2 47 21 21 32 5 40 -55z m1040 0 c12 -86 2 -210 -24 -284 -12 -36 -25 -69 -30 -74 -16 -18 -56 23 -94 96 -21 40 -65 120 -97 178 -32 57 -58 113 -58 122 0 20 20 25 20 6 1 -23 85 -155 96 -151 6 2 43 0 83 -5 l71 -8 0 45 c0 25 -4 63 -9 83 -6 24 -5 40 2 47 21 21 32 5 40 -55z m-2016 6 c-58 -69 -60 -160 -5 -270 18 -36 35 -69 37 -73 2 -5 -6 -4 -18 2 -30 17 -72 105 -82 175 -11 82 4 138 49 184 42 41 56 27 19 -18z m1630 0 c-58 -69 -60 -160 -5 -270 18 -36 35 -69 37 -73 2 -5 -6 -4 -18 2 -30 17 -72 105 -82 175 -11 82 4 138 49 184 42 41 56 27 19 -18z m-495 3 c34 -39 48 -83 48 -149 0 -75 -19 -124 -69 -184 -46 -55 -48 -28 -3 40 62 93 67 197 12 268 -32 39 -20 62 12 25z m1040 0 c34 -39 48 -83 48 -149 0 -75 -19 -124 -69 -184 -46 -55 -48 -28 -3 40 62 93 67 197 12 268 -32 39 -20 62 12 25z"/>
<path d="M1193 965 l52 -106 18 58 c9 32 20 76 23 99 l6 41 -38 6 c-22 4 -56 7 -76 7 l-38 0 53 -105z"/>
<path d="M3840 669 c0 -2 25 -51 54 -109 33 -63 57 -99 60 -90 12 35 36 139 36 158 0 12 -3 23 -7 25 -10 6 -143 21 -143 16z"/>
<path d="M4880 669 c0 -2 25 -51 54 -109 33 -63 57 -99 60 -90 12 35 36 139 36 158 0 12 -3 23 -7 25 -10 6 -143 21 -143 16z"/>
</g>
<g id="layer106" fill="#b1b1b1" stroke="none">
<path d="M0 1055 l0 -1055 2870 0 2870 0 0 1055 0 1055 -2870 0 -2870 0 0 -1055z m3520 551 l0 -124 55 -27 c99 -48 135 -134 83 -200 -24 -30 -104 -85 -125 -85 -25 0 -12 15 48 58 72 51 87 78 69 123 -14 33 -82 89 -109 89 -14 0 -15 -12 -10 -97 6 -97 -3 -155 -15 -103 -21 87 -25 507 -5 495 5 -4 9 -62 9 -129z m500 57 c0 -5 33 -8 73 -8 54 -1 82 -6 113 -22 80 -42 119 -120 78 -154 -10 -8 -42 -14 -80 -14 -35 0 -64 -1 -64 -1 0 -1 16 -18 35 -37 45 -45 49 -102 10 -153 -27 -35 -127 -90 -144 -79 -19 11 -12 23 22 34 49 16 104 67 112 101 8 37 -9 67 -60 106 -40 30 -50 28 -37 -7 5 -13 12 -41 16 -62 6 -33 5 -38 -10 -35 -13 2 -27 36 -55 133 -41 142 -49 205 -24 205 8 0 15 -3 15 -7z m-160 -58 c0 -2 -15 -25 -32 -51 -30 -41 -33 -53 -33 -119 0 -64 4 -80 38 -145 21 -40 36 -74 34 -76 -9 -9 -52 44 -74 93 -30 65 -40 156 -24 206 13 38 61 97 80 97 6 0 11 -2 11 -5z m567 -37 c39 -59 45 -167 13 -233 -28 -57 -67 -105 -86 -105 -10 0 -2 18 25 56 69 96 75 191 17 277 -23 33 -24 47 -4 47 4 0 20 -19 35 -42z m-3837 -332 l0 -124 55 -27 c99 -48 135 -134 83 -200 -24 -30 -104 -85 -125 -85 -25 0 -12 15 48 58 72 51 87 78 69 123 -14 33 -82 89 -109 89 -14 0 -15 -12 -10 -97 6 -97 -3 -155 -15 -103 -21 87 -25 507 -5 495 5 -4 9 -62 9 -129z m890 -154 c0 -136 -4 -243 -10 -252 -5 -8 -10 -10 -10 -5 -5 59 -8 490 -4 496 18 30 24 -26 24 -239z m-157 112 c4 -43 6 -104 3 -135 -6 -63 -52 -219 -65 -219 -22 0 -54 43 -104 135 -29 55 -70 130 -91 167 -40 72 -61 131 -45 126 5 -2 29 -39 53 -83 l43 -80 84 -6 c46 -4 86 -5 88 -4 2 2 0 36 -4 74 -4 46 -11 69 -18 64 -10 -6 -3 10 16 35 20 26 32 4 40 -74z m327 79 c0 -5 33 -8 73 -8 54 -1 82 -6 113 -22 80 -42 119 -120 78 -154 -10 -8 -42 -14 -80 -14 -35 0 -64 -1 -64 -1 0 -1 16 -18 35 -37 63 -63 43 -148 -48 -201 -23 -14 -54 -28 -69 -31 -44 -11 -35 18 12 39 90 39 129 101 96 151 -18 27 -84 80 -92 73 -2 -3 -1 -16 4 -29 5 -13 12 -41 16 -62 6 -33 5 -38 -10 -35 -13 2 -27 36 -55 133 -41 142 -49 205 -24 205 8 0 15 -3 15 -7z m-720 -38 c0 -2 -15 -25 -32 -51 -30 -41 -33 -53 -33 -119 0 -64 4 -80 38 -145 21 -40 36 -74 34 -76 -9 -9 -52 44 -74 93 -30 65 -40 156 -24 206 13 38 61 97 80 97 6 0 11 -2 11 -5z m1127 -57 c39 -59 45 -167 13 -233 -28 -57 -67 -105 -86 -105 -10 0 -2 18 25 56 69 96 75 191 17 277 -23 33 -24 47 -4 47 4 0 20 -19 35 -42z m421 -50 c-5 -14 -164 -24 -207 -13 -50 13 3 25 107 25 79 0 103 -3 100 -12z m2876 -66 c14 -23 -639 -27 -2016 -15 -417 3 -758 10 -758 15 0 11 2767 11 2774 0z m-2914 -47 c0 -12 -15 -15 -74 -15 -77 0 -106 6 -106 21 0 5 41 9 90 9 73 0 90 -3 90 -15z m294 -51 c3 -9 6 -66 6 -128 l0 -113 39 -17 c47 -22 86 -57 107 -98 31 -60 -10 -129 -107 -178 -43 -23 -49 -24 -49 -11 0 6 25 26 55 47 62 41 85 68 85 101 0 30 -62 98 -102 112 l-31 11 5 -104 c3 -57 2 -110 -3 -117 -5 -8 -9 -12 -9 -9 -14 90 -24 277 -22 383 3 126 10 162 26 121z m1630 0 c3 -9 6 -66 6 -128 l0 -113 39 -17 c47 -22 86 -57 107 -98 31 -60 -10 -129 -107 -178 -43 -23 -49 -24 -49 -11 0 6 25 26 55 47 94 62 106 99 54 159 -29 32 -76 65 -95 65 -4 0 -4 -47 -2 -104 3 -57 2 -110 -3 -117 -5 -8 -9 -12 -9 -9 -14 90 -24 277 -22 383 3 126 10 162 26 121z m-744 -267 c0 -139 -4 -248 -10 -257 -8 -12 -10 -12 -10 5 0 11 -2 119 -5 240 -4 217 -1 270 16 259 5 -3 9 -114 9 -247z m-399 127 c4 -23 13 -60 19 -83 l11 -41 100 0 c81 0 101 3 106 16 16 41 -87 114 -162 114 -46 0 -71 12 -60 30 10 17 95 5 157 -22 62 -26 98 -69 98 -113 0 -44 -20 -55 -102 -55 l-63 -1 32 -27 c81 -68 56 -164 -58 -222 -40 -21 -79 -26 -79 -11 0 5 25 21 55 35 102 51 122 114 55 178 -57 54 -72 51 -54 -9 8 -25 14 -54 14 -65 0 -23 -27 -24 -34 0 -39 127 -76 270 -76 294 0 47 33 33 41 -18z m802 -20 c12 -88 2 -210 -23 -284 -12 -36 -26 -69 -31 -74 -17 -18 -57 25 -99 106 -24 46 -61 112 -83 148 -59 98 -81 160 -58 160 5 0 13 -10 16 -22 4 -11 22 -46 40 -77 l33 -56 86 -10 86 -11 0 42 c0 59 -11 105 -23 97 -6 -4 -7 -1 -2 8 32 56 48 48 58 -27z m1040 0 c12 -86 2 -210 -24 -284 -12 -36 -25 -69 -30 -74 -17 -18 -57 25 -99 106 -24 46 -62 115 -84 153 -48 81 -66 120 -66 140 0 23 18 18 25 -7 4 -11 22 -46 40 -77 l33 -56 86 -10 86 -11 0 46 c0 25 -4 62 -9 82 -6 24 -5 40 2 47 21 21 32 5 40 -55z m-2025 -9 c-30 -42 -33 -53 -32 -116 0 -59 6 -80 37 -141 38 -74 41 -93 9 -65 -54 49 -93 198 -73 274 12 44 81 127 88 107 2 -7 -11 -33 -29 -59z m1630 0 c-30 -42 -33 -53 -32 -116 0 -59 6 -80 37 -141 38 -74 41 -93 9 -65 -54 49 -93 198 -73 274 12 44 81 127 88 107 2 -7 -11 -33 -29 -59z m-475 6 c35 -43 50 -113 37 -180 -14 -73 -87 -187 -107 -167 -3 3 8 26 26 51 38 53 61 115 61 164 0 38 -30 114 -49 125 -13 9 -15 36 -2 36 5 0 20 -13 34 -29z m1040 0 c35 -43 50 -113 37 -180 -14 -73 -87 -187 -107 -167 -3 3 8 26 26 51 38 53 61 115 61 164 0 38 -30 114 -49 125 -13 9 -15 36 -2 36 5 0 20 -13 34 -29z"/>
<path d="M4034 1592 c3 -24 12 -56 19 -71 12 -25 17 -26 95 -29 77 -3 122 7 122 28 0 16 -52 70 -82 86 -16 8 -58 18 -94 23 l-66 8 6 -45z"/>
<path d="M1190 969 c29 -57 54 -105 55 -107 2 -2 13 40 26 92 12 53 20 98 17 101 -3 3 -38 9 -78 12 l-72 6 52 -104z"/>
<path d="M1664 1202 c3 -24 12 -56 19 -71 12 -25 17 -26 95 -29 77 -3 122 7 122 28 0 16 -52 70 -82 86 -16 8 -58 18 -94 23 l-66 8 6 -45z"/>
<path d="M3892 567 c28 -59 54 -104 57 -101 8 7 40 137 41 161 0 25 -11 29 -93 39 l-58 6 53 -105z"/>
<path d="M4932 567 c28 -59 54 -104 57 -101 8 7 40 137 41 161 0 25 -11 29 -93 39 l-58 6 53 -105z"/>
</g>
<g id="layer107" fill="#cfcfcf" stroke="none">
<path d="M0 1055 l0 -1055 2870 0 2870 0 0 1055 0 1055 -2870 0 -2870 0 0 -1055z m3521 565 c1 -66 2 -124 3 -130 0 -5 25 -21 54 -36 96 -48 131 -134 80 -199 -24 -30 -104 -85 -125 -85 -25 0 -12 15 48 58 73 52 86 80 62 131 -16 31 -80 80 -106 81 -5 0 -8 -44 -7 -97 3 -126 2 -133 -11 -111 -5 9 -12 61 -16 115 -3 54 -10 103 -15 110 -5 7 -5 14 2 18 6 4 10 56 10 136 0 79 4 129 10 129 6 0 10 -47 11 -120z m503 43 c3 -4 29 -6 56 -4 70 4 139 -22 184 -68 31 -31 37 -44 34 -72 -4 -42 -33 -59 -104 -59 l-52 0 34 -34 c29 -29 34 -41 34 -79 0 -34 -6 -53 -25 -75 -25 -30 -116 -82 -142 -82 -31 0 -9 27 45 55 73 38 103 86 81 130 -14 28 -85 92 -93 84 -3 -2 3 -30 11 -62 16 -56 11 -85 -12 -69 -15 10 -85 261 -85 305 0 35 15 49 34 30z m-164 -59 c0 -3 -15 -26 -32 -51 -30 -41 -33 -52 -33 -118 0 -64 4 -80 38 -144 20 -40 37 -74 37 -77 0 -2 -11 2 -23 11 -36 23 -77 116 -84 189 -7 75 7 123 47 166 25 27 50 39 50 24z m567 -36 c37 -56 45 -164 16 -229 -24 -54 -70 -109 -90 -109 -12 0 -10 7 9 33 50 64 68 113 68 180 0 53 -5 71 -29 109 -27 43 -30 58 -9 58 4 0 20 -19 35 -42z m-3836 -318 c1 -66 2 -124 3 -130 0 -5 25 -21 54 -36 135 -67 138 -183 6 -260 -76 -44 -83 -24 -10 29 80 57 94 84 69 136 -16 31 -80 80 -106 81 -5 0 -8 -44 -7 -97 3 -126 2 -133 -11 -111 -5 9 -12 61 -16 115 -3 54 -10 103 -15 110 -5 7 -5 14 2 18 6 4 10 56 10 136 0 79 4 129 10 129 6 0 10 -47 11 -120z m889 -165 c0 -228 -3 -265 -21 -265 -10 0 -13 493 -3 503 20 19 24 -26 24 -238z m-157 124 c12 -94 2 -204 -26 -287 -14 -40 -27 -76 -30 -79 -15 -15 -58 33 -97 109 -24 46 -63 117 -88 158 -37 63 -72 139 -72 157 0 3 5 3 10 1 6 -2 30 -39 54 -83 l43 -79 49 -3 c27 -1 66 -5 88 -8 l38 -6 -6 53 c-3 29 -6 63 -6 76 0 15 -4 21 -12 16 -7 -5 -8 -2 -3 7 33 57 48 48 58 -32z m331 64 c3 -4 29 -6 56 -4 70 4 139 -22 184 -68 31 -31 37 -44 34 -72 -4 -42 -33 -59 -104 -59 l-52 0 34 -34 c29 -29 34 -41 34 -79 0 -34 -6 -53 -25 -75 -25 -30 -116 -82 -142 -82 -31 0 -9 27 45 55 73 38 103 86 81 130 -14 28 -85 92 -93 84 -3 -2 3 -30 11 -62 16 -56 11 -85 -12 -69 -15 10 -85 261 -85 305 0 35 15 49 34 30z m-724 -39 c0 -3 -15 -26 -32 -51 -30 -41 -33 -52 -33 -118 0 -64 4 -80 38 -145 21 -40 36 -74 34 -77 -10 -9 -48 36 -72 84 -31 63 -43 164 -26 216 13 38 61 97 80 97 6 0 11 -3 11 -6z m1127 -56 c37 -56 45 -164 16 -229 -24 -54 -70 -109 -90 -109 -12 0 -10 7 9 33 50 64 68 113 68 180 0 53 -5 71 -29 109 -27 43 -30 58 -9 58 4 0 20 -19 35 -42z m423 -53 c0 -12 -18 -15 -104 -15 -57 0 -112 3 -122 7 -33 13 16 22 124 22 84 1 102 -2 102 -14z m2876 -57 c4 -5 4 -11 0 -15 -10 -10 -2489 -17 -2653 -8 -68 4 -123 11 -123 16 0 5 84 10 188 12 380 6 2581 2 2588 -5z m-2913 -53 c-4 -16 -175 -13 -181 3 -3 10 17 12 90 10 55 -2 92 -7 91 -13z m295 -166 l3 -124 55 -29 c91 -48 124 -120 85 -183 -20 -32 -90 -85 -128 -97 -42 -13 -24 12 37 54 96 65 104 101 36 165 -24 23 -53 45 -66 48 l-23 6 6 -109 c3 -61 2 -112 -3 -115 -12 -7 -18 28 -26 138 -4 57 -11 97 -17 97 -7 0 -6 5 1 12 8 8 12 54 12 141 0 98 3 128 13 125 8 -3 13 -40 15 -129z m1630 0 l3 -124 55 -29 c91 -48 124 -120 85 -183 -20 -32 -90 -85 -128 -97 -42 -13 -24 12 37 54 96 65 104 101 36 165 -24 23 -53 45 -66 48 l-23 6 6 -109 c3 -61 2 -112 -3 -115 -12 -7 -18 28 -26 138 -4 57 -11 97 -17 97 -7 0 -6 5 1 12 8 8 12 54 12 141 0 98 3 128 13 125 8 -3 13 -40 15 -129z m-748 -152 c0 -139 -4 -248 -10 -257 -9 -13 -10 -13 -10 0 -10 505 -10 517 11 505 5 -4 9 -110 9 -248z m-339 168 c113 -5 212 -68 212 -136 0 -45 -24 -59 -102 -59 l-66 -1 29 -21 c55 -41 66 -108 28 -166 -19 -29 -109 -82 -139 -82 -36 0 -27 18 21 41 119 55 137 134 46 195 -46 32 -50 30 -34 -13 18 -51 18 -93 0 -93 -15 0 -18 7 -66 169 -37 127 -40 194 -8 174 6 -3 41 -7 79 -8z m499 -91 l39 -71 82 -7 c44 -4 83 -5 86 -2 3 3 2 35 -2 71 -5 46 -10 63 -18 58 -7 -4 -5 4 4 17 38 58 57 13 58 -134 1 -81 -28 -217 -54 -252 -12 -17 -14 -17 -37 -2 -13 9 -55 73 -93 143 -39 70 -82 149 -97 177 -16 28 -28 62 -27 77 0 31 3 28 59 -75z m1040 0 l39 -71 82 -7 c44 -4 83 -5 87 -2 3 4 1 39 -5 79 -8 58 -8 75 3 87 25 26 36 -5 41 -117 5 -91 2 -121 -17 -190 -12 -45 -28 -90 -35 -99 -12 -17 -14 -17 -37 -2 -13 9 -55 73 -93 143 -39 70 -82 149 -97 177 -16 28 -28 62 -27 77 0 31 3 28 59 -75z m-1782 21 c-30 -43 -33 -53 -32 -117 1 -60 7 -80 38 -140 20 -39 34 -73 30 -77 -11 -10 -63 60 -79 108 -40 117 -26 213 38 267 43 36 45 16 5 -41z m1630 0 c-30 -43 -33 -53 -32 -117 1 -60 7 -80 38 -140 20 -39 34 -73 30 -77 -11 -10 -63 60 -79 108 -40 117 -26 213 38 267 43 36 45 16 5 -41z m-474 5 c48 -58 56 -152 20 -238 -16 -39 -71 -112 -85 -112 -17 0 -9 20 26 68 62 87 70 183 20 256 -41 61 -27 80 19 26z m1040 0 c45 -55 56 -123 31 -207 -21 -70 -105 -177 -105 -133 0 5 15 31 34 57 63 88 70 185 20 258 -40 60 -25 78 20 25z"/>
<path d="M4030 1623 c0 -23 22 -107 31 -119 12 -14 147 -18 182 -5 34 13 34 21 0 62 -33 39 -80 59 -155 68 -46 6 -58 4 -58 -6z"/>
<path d="M1190 970 c35 -70 54 -99 59 -89 12 23 45 168 40 173 -3 3 -38 9 -78 12 l-73 7 52 -103z"/>
<path d="M1660 1233 c0 -23 22 -107 31 -119 12 -14 147 -18 182 -5 34 13 34 21 0 62 -33 39 -80 59 -155 68 -46 6 -58 4 -58 -6z"/>
<path d="M3220 835 c0 -10 7 -45 16 -77 l17 -58 92 0 c71 0 95 4 105 15 32 38 -76 115 -160 115 -25 0 -51 5 -58 12 -9 9 -12 8 -12 -7z"/>
<path d="M3890 569 c29 -57 54 -105 55 -107 5 -5 33 97 41 144 7 47 10 45 -99 60 l-48 6 51 -103z"/>
<path d="M4930 569 c29 -57 54 -105 55 -107 5 -5 33 97 41 144 7 47 10 45 -99 60 l-48 6 51 -103z"/>
</g>
<g id="layer108" fill="#ffffff" stroke="none">
<path d="M0 1055 l0 -1055 2870 0 2870 0 0 1055 0 1055 -2870 0 -2870 0 0 -1055z m3524 669 c3 -9 6 -68 6 -133 l0 -117 36 -13 c76 -28 135 -109 119 -163 -17 -54 -152 -157 -170 -128 -3 4 24 29 59 54 35 25 66 53 70 61 11 30 6 70 -12 92 -17 22 -80 63 -96 63 -5 0 -7 -46 -4 -104 3 -57 2 -109 -2 -116 -13 -21 -21 19 -27 125 -3 55 -10 103 -16 106 -5 4 -6 12 -2 19 4 6 7 62 6 124 -2 109 3 146 19 146 4 0 11 -7 14 -16z m606 -66 c62 -11 131 -47 155 -80 8 -13 15 -37 15 -55 0 -44 -30 -63 -99 -63 l-55 0 31 -32 c17 -18 34 -43 38 -56 9 -31 -10 -84 -43 -114 -30 -29 -103 -68 -126 -68 -35 0 -23 21 25 45 107 55 129 119 63 181 -50 48 -66 46 -47 -8 8 -22 13 -50 11 -61 -4 -24 -26 -35 -32 -15 -46 141 -89 315 -81 328 7 11 81 9 145 -2z m-295 -98 c-45 -61 -53 -116 -30 -195 9 -32 27 -74 41 -94 46 -68 22 -86 -26 -19 -82 113 -79 283 7 346 43 32 47 15 8 -38z m592 11 c65 -96 44 -239 -47 -326 -41 -39 -44 -16 -5 39 45 64 58 106 53 176 -3 41 -12 70 -31 99 -32 48 -33 54 -10 49 10 -2 28 -18 40 -37z m-3833 -217 c3 -9 6 -68 6 -133 l0 -117 36 -13 c76 -28 135 -109 119 -163 -17 -54 -152 -157 -170 -128 -3 4 24 29 59 54 35 25 66 53 70 61 11 30 6 70 -12 92 -17 22 -80 63 -96 63 -5 0 -7 -46 -4 -104 3 -57 2 -109 -2 -116 -13 -21 -21 19 -27 125 -3 55 -10 103 -16 106 -5 4 -6 12 -2 19 4 6 7 62 6 124 -2 109 3 146 19 146 4 0 11 -7 14 -16z m886 -269 c0 -238 -3 -275 -21 -275 -10 0 -13 513 -3 523 20 19 24 -27 24 -248z m-157 124 c15 -119 -11 -294 -52 -358 -16 -24 -53 9 -91 80 -18 35 -61 114 -95 174 -62 109 -84 165 -66 165 5 0 30 -37 54 -82 l45 -83 69 -3 c37 -1 76 -5 86 -8 19 -6 20 4 8 101 -8 60 0 90 23 82 6 -2 15 -33 19 -68z m437 59 c62 -11 131 -47 155 -80 8 -13 15 -37 15 -55 0 -44 -30 -63 -99 -63 l-55 0 31 -32 c17 -18 34 -43 38 -56 10 -33 -12 -87 -48 -119 -41 -35 -111 -67 -131 -60 -27 11 -18 24 29 42 106 40 136 118 69 181 -50 48 -66 46 -47 -8 8 -22 13 -50 11 -61 -4 -24 -26 -35 -32 -15 -46 141 -89 315 -81 328 7 11 81 9 145 -2z m-832 -46 c-7 -10 -22 -29 -35 -45 -47 -58 -36 -189 22 -275 47 -69 24 -87 -25 -20 -82 113 -79 283 7 346 31 23 51 19 31 -6z m334 -4 c-7 -7 -12 -8 -12 -2 0 14 12 26 19 19 2 -3 -1 -11 -7 -17z m795 -37 c64 -95 49 -216 -39 -316 -41 -48 -63 -31 -23 17 44 52 65 106 65 174 0 50 -5 68 -30 107 -35 55 -36 60 -13 55 10 -2 28 -18 40 -37z m428 -56 c0 -11 -186 -19 -224 -10 -20 5 -22 8 -10 16 19 12 234 7 234 -6z m2881 -57 c4 -5 4 -11 0 -15 -9 -10 -2623 -17 -2723 -8 -79 7 -96 21 -35 28 68 7 2750 2 2758 -5z m-2923 -53 c-4 -16 -175 -13 -181 3 -3 10 17 12 90 10 55 -2 92 -7 91 -13z m295 -167 l3 -125 51 -24 c58 -27 108 -87 108 -129 0 -15 -10 -42 -23 -61 -24 -35 -109 -99 -133 -99 -28 0 -13 19 45 60 33 23 64 54 71 69 19 47 -14 98 -89 136 l-34 17 7 -116 c4 -70 3 -116 -3 -116 -15 0 -20 25 -27 128 -4 53 -11 102 -16 109 -5 7 -5 14 2 18 6 4 10 56 10 136 0 100 3 130 13 127 8 -3 13 -41 15 -130z m1630 0 l3 -125 51 -24 c58 -27 108 -87 108 -129 0 -15 -10 -42 -23 -61 -24 -35 -109 -99 -133 -99 -28 0 -13 19 45 60 33 23 64 54 71 69 19 47 -14 98 -89 136 l-34 17 7 -116 c4 -70 3 -116 -3 -116 -15 0 -20 25 -27 128 -4 53 -11 102 -16 109 -5 7 -5 14 2 18 6 4 10 56 10 136 0 100 3 130 13 127 8 -3 13 -41 15 -130z m-746 -90 c5 -200 -1 -319 -16 -318 -10 0 -19 463 -10 493 14 47 21 1 26 -175z m-410 116 c3 -3 35 -7 70 -8 35 -2 84 -12 109 -23 50 -22 109 -84 109 -113 0 -44 -75 -81 -135 -66 -30 8 -33 -4 -5 -21 11 -7 27 -27 36 -44 23 -46 11 -96 -36 -140 -36 -35 -122 -74 -134 -61 -15 14 -2 28 39 45 47 20 105 77 105 103 0 25 -29 67 -63 91 -38 27 -43 24 -28 -18 17 -50 14 -91 -6 -87 -12 2 -27 39 -54 133 -40 137 -49 215 -26 215 8 0 16 -3 19 -6z m562 -88 l45 -83 82 -7 c45 -4 84 -4 87 -2 8 9 -9 136 -19 131 -15 -10 -10 7 8 27 40 44 53 7 53 -149 0 -71 -6 -110 -25 -172 -28 -87 -32 -93 -61 -85 -20 5 -32 22 -97 144 -22 41 -55 100 -73 131 -49 81 -71 149 -48 149 1 0 23 -38 48 -84z m1040 0 l45 -83 82 -7 c45 -4 84 -4 87 -1 3 3 1 38 -5 78 -10 73 -5 97 22 97 17 0 25 -55 25 -167 0 -71 -6 -110 -25 -172 -28 -87 -32 -93 -61 -85 -20 5 -32 22 -97 144 -22 41 -55 100 -73 131 -49 81 -71 149 -48 149 1 0 23 -38 48 -84z m-1734 68 c0 -3 -14 -24 -31 -45 -16 -21 -35 -53 -40 -71 -16 -57 5 -149 52 -230 33 -56 23 -72 -17 -26 -90 108 -97 282 -13 353 29 24 49 32 49 19z m1630 0 c0 -3 -14 -24 -31 -45 -16 -21 -35 -53 -40 -71 -16 -57 5 -149 52 -230 33 -56 23 -72 -17 -26 -90 108 -97 282 -13 353 29 24 49 32 49 19z m-497 -84 c26 -49 28 -62 23 -117 -3 -34 -14 -80 -25 -101 -26 -52 -69 -102 -87 -102 -20 0 -18 8 11 42 83 99 93 247 21 307 -23 19 -20 33 6 29 15 -2 31 -20 51 -58z m1040 0 c25 -48 28 -63 24 -115 -2 -33 -14 -79 -25 -101 -27 -54 -70 -104 -88 -104 -20 0 -18 8 11 42 83 99 93 247 21 307 -23 19 -20 33 6 29 15 -2 31 -20 51 -58z"/>
<path d="M4030 1620 c0 -9 7 -40 15 -68 l16 -52 99 0 c98 0 100 0 100 23 0 46 -75 92 -170 105 -52 8 -60 7 -60 -8z"/>
<path d="M1193 968 l51 -102 17 58 c10 32 20 75 24 96 l6 37 -53 6 c-107 13 -103 20 -45 -95z"/>
<path d="M1660 1230 c0 -9 7 -40 15 -68 l16 -52 99 0 c98 0 100 0 100 23 0 46 -75 92 -170 105 -52 8 -60 7 -60 -8z"/>
<path d="M3220 833 c0 -2 7 -33 16 -68 l16 -65 93 0 c62 0 96 4 103 13 23 29 -27 83 -98 105 -38 11 -130 22 -130 15z"/>
<path d="M3892 566 c29 -58 54 -104 56 -101 6 5 42 148 42 167 0 17 -13 21 -103 33 l-48 6 53 -105z"/>
<path d="M4932 566 c29 -58 54 -104 56 -101 6 5 42 148 42 167 0 17 -13 21 -103 33 l-48 6 53 -105z"/>
</g>


</svg>