<!DOCTYPE svg PUBLIC "-//W3C//DTD SVG 20010904//EN" "http://www.w3.org/TR/2001/REC-SVG-20010904/DTD/svg10.dtd">
<svg version="1.0" xmlns="http://www.w3.org/2000/svg" width="640px" height="260px" viewBox="0 0 6400 2600" preserveAspectRatio="xMidYMid meet">
<g id="layer101" fill="#030304" stroke="none">
<path d="M0 1300 l0 -1300 3200 0 3200 0 0 1300 0 1300 -3200 0 -3200 0 0 -1300z"/>
</g>
<g id="layer102" fill="#313032" stroke="none">
<path d="M0 1300 l0 -1300 3200 0 3200 0 0 1300 0 1300 -3200 0 -3200 0 0 -1300z m2935 368 c38 -89 38 -88 27 -88 -5 0 -16 17 -24 38 l-14 37 -13 -37 c-7 -21 -17 -38 -23 -38 -6 0 -7 8 -3 18 24 59 26 73 16 102 -19 55 6 31 34 -32z m1661 -5 c16 -37 31 -71 32 -75 2 -4 -1 -8 -6 -8 -5 0 -16 17 -25 37 l-14 37 -14 -37 c-7 -20 -17 -37 -21 -37 -11 0 -10 4 8 50 13 33 14 46 5 66 -13 30 -14 34 -3 34 5 0 22 -30 38 -67z m-2856 -13 c0 -28 2 -30 40 -30 38 0 40 2 40 30 0 17 5 30 10 30 6 0 10 -33 10 -80 0 -47 -4 -80 -10 -80 -5 0 -10 20 -10 45 l0 45 -40 0 -40 0 0 -45 c0 -25 -4 -45 -10 -45 -6 0 -10 33 -10 80 0 47 4 80 10 80 6 0 10 -13 10 -30z m220 20 c11 -7 5 -10 -22 -10 -27 0 -38 -4 -38 -15 0 -10 11 -15 35 -15 22 0 35 -5 35 -13 0 -19 -21 -37 -45 -37 -29 0 -45 19 -45 52 0 39 45 61 80 38z m96 -12 c8 12 20 22 25 22 6 0 1 -13 -10 -28 -18 -26 -19 -31 -5 -50 8 -12 11 -22 5 -22 -5 0 -15 8 -21 18 -10 16 -10 16 -20 0 -6 -10 -15 -18 -21 -18 -5 0 -3 10 6 23 13 21 13 26 0 43 -22 29 -17 42 6 15 l20 -24 15 21z m132 6 c27 -19 28 -45 2 -69 -16 -15 -26 -17 -48 -9 -34 12 -44 61 -16 81 23 17 35 16 62 -3z m150 -62 c20 -3 22 1 22 37 0 23 5 41 10 41 6 0 10 -18 10 -41 0 -36 2 -40 23 -37 17 2 23 11 28 43 l6 40 2 -48 c1 -52 -16 -70 -50 -49 -11 7 -20 8 -24 2 -3 -5 -19 -8 -35 -7 -29 2 -30 3 -29 52 l2 50 6 -40 c5 -32 11 -41 29 -43z m220 62 c26 -18 28 -41 5 -66 -33 -37 -83 -17 -83 34 0 43 39 60 78 32z m117 6 c3 -5 -2 -10 -12 -10 -19 0 -43 -18 -43 -31 0 -4 7 -15 16 -23 21 -22 58 -3 51 26 -6 23 1 48 14 48 5 0 9 -38 9 -85 0 -50 -4 -85 -10 -85 -5 0 -10 18 -10 40 0 38 -1 40 -25 34 -33 -8 -55 11 -55 47 0 37 48 66 65 39z m85 -40 c0 -27 -4 -50 -10 -50 -5 0 -10 23 -10 50 0 28 5 50 10 50 6 0 10 -22 10 -50z m70 5 c0 -29 4 -45 13 -46 10 0 10 -2 0 -6 -20 -7 -16 -61 5 -67 10 -3 6 -4 -8 -3 -20 2 -26 8 -28 35 -2 17 -8 32 -15 32 -8 0 -8 3 1 12 7 7 12 29 12 50 0 21 5 38 10 38 6 0 10 -20 10 -45z m275 35 c3 -5 -1 -10 -9 -10 -23 0 -21 -56 2 -69 16 -10 16 -10 0 -11 -12 0 -18 -8 -18 -25 0 -14 -4 -25 -10 -25 -10 0 -13 29 -10 90 3 48 28 77 45 50z m55 -29 c0 -39 12 -53 38 -43 7 2 12 21 12 43 0 21 5 39 10 39 16 0 12 -76 -5 -90 -8 -6 -23 -9 -35 -5 -18 6 -20 2 -20 -34 0 -23 -4 -41 -10 -41 -6 0 -10 35 -10 85 0 50 4 85 10 85 6 0 10 -18 10 -39z m177 32 c14 -6 11 -9 -16 -13 -51 -7 -52 -30 -2 -30 44 0 50 -9 25 -34 -20 -20 -48 -20 -68 0 -22 22 -20 50 6 68 26 18 29 19 55 9z m75 -30 c2 -30 7 -38 23 -38 16 0 21 8 23 38 4 50 22 48 22 -3 0 -33 3 -40 20 -40 17 0 20 7 20 40 0 22 5 40 11 40 6 0 9 -19 7 -47 l-3 -48 -72 -1 -73 0 0 48 c0 57 17 65 22 11z m235 30 c14 -6 11 -9 -15 -13 -45 -7 -45 -24 1 -28 38 -3 47 -18 25 -40 -13 -13 -47 -16 -64 -4 -24 15 -26 50 -5 71 23 23 30 25 58 14z m133 -3 c0 -6 8 -5 20 2 17 11 23 9 42 -9 18 -19 20 -27 12 -50 -10 -30 -39 -42 -58 -23 -8 8 -7 10 5 5 20 -7 42 18 37 42 -2 12 -12 18 -28 18 -24 0 -25 -3 -28 -72 -4 -102 -22 -92 -22 12 0 50 4 85 10 85 6 0 10 -5 10 -10z m184 -6 c17 -17 22 -84 7 -84 -6 0 -11 17 -13 38 -2 30 -7 38 -25 40 -21 3 -23 -1 -23 -37 0 -23 -4 -41 -10 -41 -5 0 -10 15 -10 34 0 35 21 66 45 66 7 0 21 -7 29 -16z m106 6 c0 -5 -7 -10 -15 -10 -23 0 -21 -70 3 -71 16 -1 16 -2 0 -6 -11 -3 -18 -14 -18 -29 0 -33 -20 -30 -21 4 -2 54 3 97 13 110 12 14 38 16 38 2z m80 1 c0 -5 -7 -11 -15 -15 -21 -8 -19 -53 3 -65 16 -10 16 -10 0 -11 -12 0 -18 -9 -19 -27 l-2 -28 -4 28 c-2 15 -9 27 -16 27 -8 0 -8 3 1 12 7 7 12 26 12 43 0 18 3 35 7 38 9 10 33 8 33 -2z m107 2 c14 -6 11 -9 -16 -13 -51 -7 -52 -30 -2 -30 44 0 50 -9 25 -34 -20 -20 -48 -20 -68 0 -22 22 -20 50 6 68 26 18 29 19 55 9z m73 -33 c0 -33 3 -40 20 -40 11 0 20 -4 20 -9 0 -5 -13 -9 -30 -9 -29 1 -30 3 -30 50 0 26 5 48 10 48 6 0 10 -18 10 -40z m100 -5 c0 -36 4 -45 18 -46 16 -1 16 -2 0 -6 -12 -3 -18 -14 -18 -35 0 -23 4 -29 15 -24 8 3 15 1 15 -5 0 -6 -10 -9 -22 -7 -26 3 -35 41 -30 121 5 60 22 62 22 2z m80 -45 c0 -47 -4 -80 -10 -80 -6 0 -10 33 -10 80 0 47 4 80 10 80 6 0 10 -33 10 -80z m-1750 -50 c0 -5 -4 -10 -10 -10 -5 0 -10 5 -10 10 0 6 5 10 10 10 6 0 10 -4 10 -10z"/>
<path d="M1900 1610 c0 -19 31 -23 48 -6 15 15 14 16 -16 16 -18 0 -32 -5 -32 -10z"/>
<path d="M2130 1641 c-7 -15 -6 -24 6 -36 9 -9 21 -14 27 -12 18 6 31 33 24 51 -9 22 -44 20 -57 -3z"/>
<path d="M2501 1647 c-14 -17 -6 -43 16 -51 22 -9 45 13 41 38 -4 25 -40 33 -57 13z"/>
<path d="M3602 1604 c9 -9 24 -14 32 -11 27 11 17 27 -16 27 -30 0 -31 -1 -16 -16z"/>
<path d="M4211 1605 c9 -9 23 -13 32 -9 28 10 19 24 -15 24 -29 0 -31 -2 -17 -15z"/>
</g>
<g id="layer103" fill="#403f42" stroke="none">
<path d="M0 1300 l0 -1300 3200 0 3200 0 0 1300 0 1300 -3200 0 -3200 0 0 -1300z m2941 356 c32 -76 32 -76 21 -76 -5 0 -16 15 -24 33 l-16 32 -12 -32 c-7 -18 -16 -33 -21 -33 -12 0 -12 3 7 50 13 33 14 46 5 66 -14 31 -14 37 0 32 6 -2 24 -34 40 -72z m1654 12 c38 -89 38 -88 28 -88 -5 0 -17 15 -25 33 l-16 32 -12 -32 c-7 -18 -16 -33 -21 -33 -12 0 -12 3 7 50 13 33 14 46 5 66 -13 30 -14 34 -2 34 4 0 21 -28 36 -62z m-2855 -18 c0 -28 2 -30 40 -30 38 0 40 2 40 30 0 17 5 30 10 30 6 0 10 -33 10 -80 0 -83 -17 -112 -22 -37 -3 41 -4 42 -38 42 -34 0 -35 -1 -38 -42 -5 -75 -22 -46 -22 37 0 47 4 80 10 80 6 0 10 -13 10 -30z m220 20 c15 -10 13 -11 -29 -13 -13 -1 -26 -7 -28 -14 -3 -8 4 -10 19 -8 13 3 30 0 38 -5 20 -13 1 -44 -29 -48 -30 -5 -51 15 -51 49 0 40 44 62 80 39z m62 -7 c17 -15 19 -15 36 0 28 26 36 20 14 -10 -18 -25 -18 -29 -5 -50 9 -14 11 -23 5 -23 -6 0 -15 7 -20 16 -8 14 -10 14 -21 0 -21 -25 -35 -18 -18 8 15 22 15 26 -4 50 -23 29 -15 35 13 9z m168 -1 c46 -37 -9 -106 -59 -75 -23 15 -27 64 -5 80 24 18 38 16 64 -5z m121 1 c1 -10 2 -22 4 -28 1 -5 3 -16 3 -22 1 -7 11 -13 22 -13 17 0 20 7 20 40 0 51 18 53 22 3 2 -30 7 -38 23 -38 16 0 21 8 23 38 2 20 6 37 10 37 4 0 6 -21 4 -46 -4 -49 -22 -65 -53 -46 -11 7 -20 8 -24 2 -3 -5 -20 -8 -37 -6 -30 3 -32 5 -33 50 0 25 3 46 7 46 4 0 9 -8 9 -17z m254 -3 c24 -27 13 -68 -22 -76 -34 -9 -57 6 -61 42 -6 49 49 72 83 34z m145 -67 c0 -49 -4 -83 -10 -83 -5 0 -10 18 -10 40 0 38 -1 40 -25 34 -32 -8 -55 11 -55 45 0 37 16 50 61 48 l39 -1 0 -83z m50 37 c0 -27 -4 -50 -10 -50 -5 0 -10 23 -10 50 0 28 5 50 10 50 6 0 10 -22 10 -50z m70 4 c0 -25 4 -43 9 -39 5 3 12 1 16 -5 3 -5 -1 -10 -9 -10 -23 0 -22 -57 2 -63 10 -3 6 -5 -10 -6 -25 -1 -28 2 -28 34 0 21 -5 35 -12 35 -9 0 -9 3 0 12 7 7 12 29 12 50 0 21 5 38 10 38 6 0 10 -21 10 -46z m280 36 c0 -5 -7 -10 -15 -10 -21 0 -19 -50 3 -66 16 -13 16 -13 0 -14 -12 0 -18 -8 -18 -25 0 -14 -4 -25 -10 -25 -18 0 -16 116 2 138 12 14 38 16 38 2z m52 -27 c2 -31 7 -39 26 -41 20 -3 22 1 22 37 0 23 5 41 10 41 12 0 13 -70 1 -89 -5 -8 -19 -12 -35 -9 -24 5 -26 3 -26 -33 0 -22 -4 -39 -10 -39 -6 0 -10 35 -10 85 0 85 16 119 22 48z m172 31 c26 -10 18 -21 -13 -16 -16 2 -32 -1 -35 -7 -4 -7 8 -13 34 -17 44 -7 44 -7 30 -35 -13 -23 -53 -25 -74 -3 -21 20 -20 43 1 66 17 19 31 22 57 12z m78 -31 c2 -30 7 -38 23 -38 16 0 21 8 23 38 4 50 22 48 22 -3 0 -33 3 -40 20 -40 17 0 20 7 20 40 0 22 5 40 11 40 6 0 9 -19 7 -47 l-3 -48 -72 -1 -73 -1 0 48 c0 57 17 66 22 12z m243 27 c4 -6 -6 -10 -24 -10 -46 0 -47 -19 -1 -26 41 -7 50 -20 28 -42 -27 -27 -88 -3 -88 34 0 35 68 71 85 44z m125 -1 c0 -8 4 -8 15 1 21 17 54 3 61 -27 9 -36 -8 -58 -45 -58 -29 0 -31 -2 -31 -37 0 -21 -4 -38 -10 -38 -6 0 -10 35 -10 85 0 50 4 85 10 85 6 0 10 -5 10 -11z m184 -5 c17 -17 22 -84 7 -84 -6 0 -11 17 -13 38 -2 29 -7 37 -23 37 -16 0 -21 -8 -23 -37 -4 -50 -22 -49 -22 0 0 58 39 82 74 46z m106 6 c0 -5 -7 -10 -15 -10 -22 0 -20 -56 3 -69 16 -10 16 -10 0 -11 -12 0 -18 -8 -18 -25 0 -14 -4 -25 -10 -25 -5 0 -10 11 -10 25 0 14 -5 25 -12 25 -9 0 -9 3 0 12 7 7 12 22 12 34 0 36 11 54 31 54 10 0 19 -4 19 -10z m85 0 c3 -5 -1 -10 -9 -10 -9 0 -16 -3 -17 -7 0 -5 -2 -18 -5 -30 -2 -13 3 -23 12 -27 14 -5 14 -8 0 -22 -9 -8 -14 -19 -11 -24 3 -5 1 -11 -5 -15 -6 -4 -10 5 -10 19 0 14 -5 26 -12 26 -9 0 -9 3 0 12 7 7 12 26 12 43 0 18 3 35 7 38 10 10 31 8 38 -3z m102 3 c14 -6 11 -9 -15 -13 -42 -6 -38 -25 6 -25 35 0 41 -14 16 -39 -32 -33 -84 -14 -84 30 0 41 36 63 77 47z m73 -29 c0 -27 5 -37 20 -41 30 -8 24 -22 -10 -21 -29 1 -30 3 -30 50 0 26 5 48 10 48 6 0 10 -16 10 -36z m100 0 c0 -23 6 -42 18 -50 16 -13 16 -13 -1 -14 -14 0 -18 -7 -15 -27 2 -16 8 -27 16 -25 13 2 16 -10 6 -21 -15 -14 -44 15 -44 43 0 17 -5 30 -12 30 -9 0 -9 3 0 12 7 7 12 29 12 50 0 21 5 38 10 38 6 0 10 -16 10 -36z m80 -49 c0 -50 -4 -85 -10 -85 -6 0 -10 35 -10 85 0 50 4 85 10 85 6 0 10 -35 10 -85z m-1745 -55 c3 -5 -1 -10 -9 -10 -9 0 -16 5 -16 10 0 6 4 10 9 10 6 0 13 -4 16 -10z"/>
<path d="M1900 1611 c0 -16 28 -20 47 -6 17 13 16 14 -14 15 -18 0 -33 -4 -33 -9z"/>
<path d="M2137 1654 c-11 -12 -8 -41 6 -53 19 -15 50 9 45 35 -3 19 -38 31 -51 18z"/>
<path d="M2507 1653 c-12 -12 -7 -51 7 -56 23 -9 49 17 42 41 -7 21 -35 30 -49 15z"/>
<path d="M2633 1649 c-17 -17 -3 -49 22 -49 27 0 40 26 24 46 -14 17 -31 18 -46 3z"/>
<path d="M3291 1605 c9 -9 23 -13 32 -9 28 10 19 24 -15 24 -29 0 -31 -2 -17 -15z"/>
<path d="M3601 1605 c9 -9 23 -13 32 -9 28 10 19 24 -15 24 -29 0 -31 -2 -17 -15z"/>
<path d="M3784 1646 c-10 -26 4 -48 28 -44 17 2 23 10 23 28 0 18 -6 26 -23 28 -13 2 -25 -3 -28 -12z"/>
<path d="M4213 1603 c16 -16 18 -16 34 0 16 16 15 17 -17 17 -32 0 -33 -1 -17 -17z"/>
</g>
<g id="layer104" fill="#636363" stroke="none">
<path d="M0 1300 l0 -1300 3200 0 3200 0 0 1300 0 1300 -3200 0 -3200 0 0 -1300z m2941 356 c32 -76 32 -76 20 -76 -5 0 -14 14 -22 32 l-13 31 -15 -31 c-14 -31 -31 -43 -31 -22 0 6 7 25 16 42 15 29 15 42 -1 82 -6 13 -4 17 4 15 7 -3 26 -35 42 -73z m1658 4 c34 -77 35 -80 23 -80 -5 0 -16 15 -24 33 l-16 32 -12 -32 c-7 -18 -16 -33 -21 -33 -13 0 -11 17 7 52 15 29 15 42 -1 81 -4 9 -3 17 3 17 5 0 23 -32 41 -70z m-2857 -7 c3 -24 8 -28 41 -31 35 -3 37 -2 37 27 0 17 5 31 10 31 6 0 10 -33 10 -80 0 -47 -4 -80 -10 -80 -5 0 -10 18 -10 40 l0 40 -40 0 -40 0 0 -40 c0 -22 -4 -40 -10 -40 -6 0 -10 33 -10 80 0 44 4 80 9 80 5 0 11 -12 13 -27z m212 21 c9 -3 14 -10 11 -15 -3 -4 -12 -6 -20 -2 -8 3 -23 2 -32 -3 -14 -6 -9 -9 21 -13 45 -7 54 -21 31 -45 -23 -23 -61 -20 -79 6 -20 29 -20 34 4 58 21 21 37 24 64 14z m69 -11 c18 -17 19 -17 32 0 21 29 40 21 20 -9 -13 -21 -15 -31 -6 -50 11 -25 3 -32 -17 -12 -8 8 -15 8 -27 -2 -21 -18 -28 -8 -11 16 12 16 12 22 -6 46 -22 31 -14 37 15 11z m172 -3 c28 -31 10 -74 -32 -78 -53 -5 -77 52 -35 86 23 18 46 15 67 -8z m125 -20 c0 -33 3 -40 20 -40 17 0 20 7 20 40 0 22 5 40 10 40 6 0 10 -16 10 -35 0 -23 6 -38 16 -42 20 -7 34 13 34 50 0 15 5 27 10 27 13 0 13 -56 0 -79 -8 -15 -22 -18 -80 -18 l-70 0 0 48 c0 37 4 49 15 49 11 0 15 -11 15 -40z m242 23 c21 -18 24 -53 6 -71 -20 -20 -65 -14 -82 10 -20 29 -20 34 4 58 24 24 47 25 72 3z m148 -70 c0 -49 -4 -83 -10 -83 -5 0 -10 18 -10 40 0 38 -1 39 -29 34 -24 -5 -32 -1 -46 20 -16 24 -16 28 -1 50 13 20 23 25 56 23 l40 -1 0 -83z m50 37 c0 -27 -4 -50 -10 -50 -5 0 -10 23 -10 50 0 28 5 50 10 50 6 0 10 -22 10 -50z m70 14 c0 -23 6 -42 18 -50 16 -13 16 -13 0 -14 -25 0 -26 -60 -1 -60 12 0 14 -3 7 -10 -20 -20 -44 0 -44 35 0 18 -6 36 -12 39 -10 5 -10 7 0 12 6 3 12 23 12 45 0 21 5 39 10 39 6 0 10 -16 10 -36z m280 26 c0 -5 -7 -10 -15 -10 -10 0 -15 -10 -15 -30 0 -20 5 -30 15 -30 8 0 15 -4 15 -10 0 -5 -7 -10 -15 -10 -9 0 -15 -9 -15 -25 0 -34 -20 -32 -22 3 -4 78 7 122 32 122 11 0 20 -4 20 -10z m52 -27 c2 -31 7 -39 26 -41 20 -3 22 1 22 37 0 23 5 41 10 41 12 0 13 -70 1 -89 -5 -8 -19 -12 -35 -9 -24 5 -26 3 -26 -33 0 -22 -4 -39 -10 -39 -6 0 -10 35 -10 85 0 85 16 119 22 48z m185 21 c2 -6 -8 -9 -26 -6 -16 2 -32 -1 -35 -7 -5 -7 7 -11 33 -11 33 0 41 -4 41 -18 0 -25 -20 -42 -50 -42 -48 0 -68 51 -34 85 18 17 65 17 71 -1z m65 -21 c2 -30 7 -38 23 -38 16 0 21 8 23 38 4 50 22 48 22 -3 0 -33 3 -40 20 -40 17 0 20 7 20 40 0 22 5 40 11 40 6 0 9 -19 7 -47 l-3 -48 -72 -1 -73 -1 0 48 c0 57 17 66 22 12z m245 21 c2 -7 -8 -9 -27 -6 -18 3 -30 0 -30 -7 0 -6 16 -11 36 -11 31 0 35 -3 32 -21 -4 -29 -29 -43 -61 -35 -35 8 -46 49 -21 77 19 21 65 23 71 3z m194 -5 c25 -40 -2 -85 -46 -77 -23 5 -25 2 -25 -33 0 -22 -4 -39 -10 -39 -6 0 -10 35 -10 84 l0 84 41 -2 c22 -1 45 -9 50 -17z m113 5 c17 -17 22 -84 7 -84 -6 0 -11 17 -13 38 -2 29 -7 37 -23 37 -16 0 -21 -8 -23 -37 -4 -50 -22 -49 -22 0 0 58 39 82 74 46z m106 6 c0 -5 -7 -10 -15 -10 -10 0 -15 -10 -15 -30 0 -20 5 -30 15 -30 8 0 15 -4 15 -10 0 -5 -7 -10 -15 -10 -9 0 -15 -9 -15 -25 0 -14 -4 -25 -10 -25 -5 0 -10 11 -10 25 0 14 -5 25 -12 25 -9 0 -9 3 0 12 7 7 12 26 12 43 0 18 3 35 7 38 10 11 43 8 43 -3z m85 0 c3 -5 -1 -10 -9 -10 -19 0 -22 -50 -4 -68 9 -9 9 -12 0 -12 -7 0 -12 -11 -12 -25 0 -14 -4 -25 -10 -25 -5 0 -10 11 -10 24 0 13 -6 27 -12 30 -10 5 -10 7 0 12 6 3 12 20 12 38 0 18 3 36 7 39 10 10 31 8 38 -3z m110 0 c4 -6 -6 -10 -24 -10 -16 0 -33 -4 -36 -10 -4 -6 10 -10 34 -10 42 0 48 -8 31 -41 -12 -22 -59 -26 -78 -7 -17 17 -15 54 4 72 17 18 60 21 69 6z m65 -26 c0 -27 5 -37 20 -41 30 -8 24 -22 -10 -21 -29 1 -30 3 -30 50 0 26 5 48 10 48 6 0 10 -16 10 -36z m100 -4 c0 -29 4 -40 15 -40 8 0 15 -4 15 -10 0 -5 -7 -10 -16 -10 -11 0 -14 -8 -12 -27 2 -16 8 -27 16 -25 15 3 16 -14 2 -23 -18 -11 -40 15 -40 46 0 16 -5 29 -12 29 -9 0 -9 3 0 12 7 7 12 29 12 50 0 21 5 38 10 38 6 0 10 -18 10 -40z m80 -45 c0 -50 -4 -85 -10 -85 -6 0 -10 35 -10 85 0 50 4 85 10 85 6 0 10 -35 10 -85z m-1742 -56 c-2 -6 -8 -10 -13 -10 -5 0 -11 4 -13 10 -2 6 4 11 13 11 9 0 15 -5 13 -11z"/>
<path d="M1900 1611 c0 -11 21 -19 38 -14 21 8 13 23 -13 23 -14 0 -25 -4 -25 -9z"/>
<path d="M2134 1645 c-9 -23 3 -45 25 -45 21 0 33 22 25 45 -4 8 -15 15 -25 15 -11 0 -22 -7 -25 -15z"/>
<path d="M2504 1645 c-9 -23 3 -45 25 -45 25 0 34 14 26 40 -7 23 -43 27 -51 5z"/>
<path d="M2637 1653 c-4 -3 -7 -17 -7 -30 0 -18 6 -23 24 -23 13 0 27 7 30 16 11 28 -27 57 -47 37z"/>
<path d="M3280 1615 c0 -2 9 -9 19 -14 14 -8 22 -7 31 4 11 13 8 15 -19 15 -17 0 -31 -2 -31 -5z"/>
<path d="M3603 1605 c11 -7 25 -11 33 -8 25 10 15 23 -18 23 -31 -1 -32 -2 -15 -15z"/>
<path d="M3784 1645 c-9 -23 3 -45 25 -45 25 0 34 14 26 40 -7 23 -43 27 -51 5z"/>
<path d="M4205 1610 c3 -5 15 -10 25 -10 10 0 22 5 25 10 4 6 -7 10 -25 10 -18 0 -29 -4 -25 -10z"/>
</g>
<g id="layer105" fill="#1b7cba" stroke="none">
<path d="M0 1300 l0 -1300 3200 0 3200 0 0 1300 0 1300 -3200 0 -3200 0 0 -1300z m2947 352 c32 -72 29 -109 -5 -53 l-18 29 -17 -30 c-26 -45 -39 -24 -17 27 15 34 17 51 10 71 -13 33 -13 37 2 32 7 -3 27 -37 45 -76z m1653 12 c17 -36 30 -72 30 -80 0 -27 -18 -14 -33 24 l-15 37 -7 -27 c-8 -32 -30 -54 -39 -39 -4 6 3 29 14 51 16 31 18 45 10 59 -13 25 -13 41 0 41 6 0 24 -30 40 -66z m-2860 -9 c0 -22 4 -25 40 -25 36 0 40 3 40 25 0 16 6 25 15 25 13 0 15 -14 13 -82 -2 -54 -7 -83 -15 -86 -9 -2 -13 10 -13 42 l0 46 -40 0 -40 0 0 -46 c0 -32 -4 -44 -12 -42 -9 3 -14 32 -16 86 -2 68 0 82 13 82 9 0 15 -9 15 -25z m228 8 c2 -9 -5 -11 -26 -7 -17 4 -32 1 -36 -5 -5 -7 6 -11 33 -11 34 0 41 -3 41 -20 0 -11 -11 -27 -24 -35 -52 -34 -111 30 -70 76 20 22 74 23 82 2z m62 0 c10 -17 10 -17 20 0 11 18 40 24 40 8 0 -5 -7 -14 -15 -21 -19 -16 -19 -29 1 -51 21 -23 1 -34 -22 -12 -12 13 -19 14 -22 5 -4 -13 -32 -17 -32 -4 0 4 5 13 12 20 10 10 8 19 -5 42 -16 26 -16 30 -3 30 8 0 20 -8 26 -17z m168 5 c21 -21 14 -66 -12 -83 -51 -34 -111 30 -71 75 20 22 65 26 83 8z m124 -25 c2 -26 8 -38 18 -38 10 0 16 12 18 38 4 41 22 52 22 13 0 -35 10 -56 26 -56 10 0 14 12 14 40 0 29 4 40 15 40 11 0 15 -11 15 -39 0 -49 -21 -74 -54 -62 -12 5 -28 6 -35 2 -6 -4 -25 -6 -41 -3 -29 4 -30 7 -30 53 0 36 4 49 14 49 10 0 16 -13 18 -37z m246 25 c21 -21 14 -66 -12 -83 -51 -34 -111 30 -71 75 20 22 65 26 83 8z m142 -80 c0 -67 -3 -89 -12 -86 -7 3 -14 21 -16 42 -3 29 -7 36 -19 32 -24 -10 -63 21 -63 49 0 35 25 54 70 53 l40 0 0 -90z m60 42 c0 -38 -4 -50 -15 -50 -11 0 -15 12 -15 50 0 38 4 50 15 50 11 0 15 -12 15 -50z m60 10 c0 -29 4 -40 15 -40 8 0 15 -4 15 -10 0 -5 -7 -10 -15 -10 -24 0 -19 -47 6 -53 25 -7 16 -27 -11 -27 -21 0 -40 28 -40 59 0 12 -5 21 -12 21 -9 0 -9 3 0 12 7 7 12 29 12 50 0 27 4 38 15 38 11 0 15 -11 15 -40z m280 31 c0 -5 -7 -11 -15 -15 -8 -3 -15 -17 -15 -31 0 -16 6 -25 15 -25 8 0 15 -4 15 -9 0 -5 -7 -11 -15 -15 -8 -3 -15 -17 -15 -31 0 -14 -4 -25 -10 -25 -5 0 -10 10 -10 23 0 13 -6 29 -12 36 -10 11 -10 14 0 18 6 3 12 19 12 37 0 18 3 36 7 39 10 10 43 8 43 -2z m50 -15 c0 -35 10 -56 26 -56 14 0 28 36 22 59 -2 8 3 16 10 18 8 3 12 -9 12 -41 0 -48 -17 -68 -51 -59 -16 5 -19 -1 -19 -36 0 -65 -18 -48 -22 22 -4 77 0 117 13 117 5 0 9 -11 9 -24z m190 9 c0 -11 -7 -14 -24 -9 -13 3 -27 1 -30 -5 -5 -7 5 -11 28 -11 28 0 36 -4 36 -17 -1 -41 -41 -61 -76 -38 -26 17 -33 62 -12 83 18 18 78 16 78 -3z m60 -9 c0 -35 10 -56 26 -56 10 0 14 12 14 40 0 54 27 56 32 3 2 -26 8 -38 18 -38 10 0 16 12 18 38 4 50 32 52 32 2 0 -45 -32 -80 -59 -66 -10 6 -21 8 -24 5 -3 -3 -22 -7 -41 -8 l-36 -1 0 52 c0 29 5 53 10 53 6 0 10 -11 10 -24z m250 9 c-3 -5 -15 -9 -27 -7 -12 1 -24 -2 -28 -8 -4 -6 9 -10 34 -10 44 0 51 -12 28 -44 -16 -21 -60 -24 -82 -6 -21 17 -19 67 3 79 21 13 79 10 72 -4z m187 3 c37 -31 -7 -110 -49 -87 -16 9 -18 5 -18 -36 0 -33 -4 -45 -12 -43 -9 3 -14 33 -16 90 l-3 86 43 0 c23 1 48 -4 55 -10z m121 0 c14 -14 16 -88 3 -88 -5 0 -11 18 -15 40 -10 61 -46 49 -46 -15 0 -13 -4 -27 -10 -30 -14 -9 -13 78 2 93 7 7 21 12 33 12 12 0 26 -5 33 -12z m102 3 c0 -5 -6 -11 -14 -14 -7 -3 -13 -17 -13 -31 0 -15 5 -26 13 -26 19 0 18 -16 -1 -24 -8 -3 -15 -17 -15 -31 0 -14 -4 -25 -10 -25 -5 0 -10 10 -10 23 0 13 -6 29 -12 35 -9 9 -9 15 -2 20 5 4 11 20 12 35 1 16 4 33 8 38 7 12 44 12 44 0z m90 -1 c0 -5 -7 -10 -15 -10 -10 0 -15 -10 -15 -30 0 -20 5 -30 15 -30 8 0 15 -4 15 -10 0 -5 -7 -10 -15 -10 -10 0 -15 -10 -15 -30 0 -30 -13 -40 -26 -19 -8 14 -8 100 1 127 6 22 55 32 55 12z m108 -8 c3 -9 -3 -11 -21 -7 -14 4 -28 2 -31 -4 -5 -7 5 -11 28 -11 29 0 36 -4 36 -20 0 -11 -11 -27 -25 -36 -23 -15 -27 -15 -50 0 -27 18 -34 63 -13 84 16 16 70 11 76 -6z m62 -9 c0 -33 9 -47 34 -56 24 -10 13 -21 -22 -22 -32 0 -39 12 -34 65 5 45 22 55 22 13z m100 -13 c0 -29 4 -40 15 -40 8 0 15 -4 15 -9 0 -5 -7 -11 -15 -15 -23 -9 -18 -43 7 -50 17 -4 20 -8 11 -17 -20 -20 -48 -6 -51 26 -2 17 -9 36 -15 44 -9 11 -9 15 1 18 7 3 12 21 12 44 0 21 5 39 10 39 6 0 10 -18 10 -40z m80 -51 c0 -68 -3 -90 -12 -87 -9 3 -14 33 -16 91 -2 73 0 87 13 87 12 0 15 -16 15 -91z m-1748 -61 c-15 -15 -26 -4 -18 18 5 13 9 15 18 6 9 -9 9 -15 0 -24z"/>
</g>
<g id="layer106" fill="#1a84c8" stroke="none">
<path d="M0 1300 l0 -1300 3200 0 3200 0 0 1300 0 1300 -3200 0 -3200 0 0 -1300z m2947 352 c32 -72 29 -109 -5 -53 l-18 29 -17 -30 c-26 -45 -39 -24 -17 27 15 34 17 51 10 71 -13 33 -13 37 2 32 7 -3 27 -37 45 -76z m1653 12 c17 -36 30 -72 30 -80 0 -27 -18 -14 -33 24 l-15 37 -7 -27 c-8 -32 -30 -54 -39 -39 -4 6 3 29 14 51 16 31 18 45 10 59 -13 25 -13 41 0 41 6 0 24 -30 40 -66z m-2860 -9 c0 -22 4 -25 40 -25 36 0 40 3 40 25 0 16 6 25 15 25 13 0 15 -14 13 -82 -2 -54 -7 -83 -15 -86 -9 -2 -13 10 -13 42 l0 46 -40 0 -40 0 0 -46 c0 -32 -4 -44 -12 -42 -9 3 -14 32 -16 86 -2 68 0 82 13 82 9 0 15 -9 15 -25z m228 8 c2 -9 -5 -11 -26 -7 -17 4 -32 1 -36 -5 -5 -7 6 -11 33 -11 34 0 41 -3 41 -20 0 -11 -11 -27 -24 -35 -52 -34 -111 30 -70 76 20 22 74 23 82 2z m62 0 c10 -17 10 -17 20 0 11 18 40 24 40 8 0 -5 -7 -14 -15 -21 -19 -16 -19 -29 1 -51 21 -23 1 -34 -22 -12 -12 13 -19 14 -22 5 -4 -13 -32 -17 -32 -4 0 4 5 13 12 20 10 10 8 19 -5 42 -16 26 -16 30 -3 30 8 0 20 -8 26 -17z m168 5 c21 -21 14 -66 -12 -83 -51 -34 -111 30 -71 75 20 22 65 26 83 8z m124 -25 c2 -26 8 -38 18 -38 10 0 16 12 18 38 4 41 22 52 22 13 0 -35 10 -56 26 -56 10 0 14 12 14 40 0 29 4 40 15 40 11 0 15 -11 15 -39 0 -49 -21 -74 -54 -62 -12 5 -28 6 -35 2 -6 -4 -25 -6 -41 -3 -29 4 -30 7 -30 53 0 36 4 49 14 49 10 0 16 -13 18 -37z m246 25 c21 -21 14 -66 -12 -83 -51 -34 -111 30 -71 75 20 22 65 26 83 8z m142 -80 c0 -67 -3 -89 -12 -86 -7 3 -14 21 -16 42 -3 29 -7 36 -19 32 -24 -10 -63 21 -63 49 0 35 25 54 70 53 l40 0 0 -90z m60 42 c0 -38 -4 -50 -15 -50 -11 0 -15 12 -15 50 0 38 4 50 15 50 11 0 15 -12 15 -50z m60 10 c0 -29 4 -40 15 -40 8 0 15 -4 15 -10 0 -5 -7 -10 -15 -10 -24 0 -19 -47 6 -53 25 -7 16 -27 -11 -27 -21 0 -40 28 -40 59 0 12 -5 21 -12 21 -9 0 -9 3 0 12 7 7 12 29 12 50 0 27 4 38 15 38 11 0 15 -11 15 -40z m280 31 c0 -5 -7 -11 -15 -15 -8 -3 -15 -17 -15 -31 0 -16 6 -25 15 -25 8 0 15 -4 15 -9 0 -5 -7 -11 -15 -15 -8 -3 -15 -17 -15 -31 0 -14 -4 -25 -10 -25 -5 0 -10 10 -10 23 0 13 -6 29 -12 36 -10 11 -10 14 0 18 6 3 12 19 12 37 0 18 3 36 7 39 10 10 43 8 43 -2z m50 -15 c0 -35 10 -56 26 -56 14 0 28 36 22 59 -2 8 3 16 10 18 8 3 12 -9 12 -41 0 -48 -17 -68 -51 -59 -16 5 -19 -1 -19 -36 0 -65 -18 -48 -22 22 -4 77 0 117 13 117 5 0 9 -11 9 -24z m190 9 c0 -11 -7 -14 -24 -9 -13 3 -27 1 -30 -5 -5 -7 5 -11 28 -11 28 0 36 -4 36 -17 -1 -41 -41 -61 -76 -38 -26 17 -33 62 -12 83 18 18 78 16 78 -3z m60 -9 c0 -35 10 -56 26 -56 10 0 14 12 14 40 0 54 27 56 32 3 2 -26 8 -38 18 -38 10 0 16 12 18 38 4 50 32 52 32 2 0 -45 -32 -80 -59 -66 -10 6 -21 8 -24 5 -3 -3 -22 -7 -41 -8 l-36 -1 0 52 c0 29 5 53 10 53 6 0 10 -11 10 -24z m250 9 c-3 -5 -15 -9 -27 -7 -12 1 -24 -2 -28 -8 -4 -6 9 -10 34 -10 44 0 51 -12 28 -44 -16 -21 -60 -24 -82 -6 -21 17 -19 67 3 79 21 13 79 10 72 -4z m187 3 c37 -31 -7 -110 -49 -87 -16 9 -18 5 -18 -36 0 -33 -4 -45 -12 -43 -9 3 -14 33 -16 90 l-3 86 43 0 c23 1 48 -4 55 -10z m121 0 c14 -14 16 -88 3 -88 -5 0 -11 18 -15 40 -10 61 -46 49 -46 -15 0 -13 -4 -27 -10 -30 -14 -9 -13 78 2 93 7 7 21 12 33 12 12 0 26 -5 33 -12z m102 3 c0 -5 -6 -11 -14 -14 -7 -3 -13 -17 -13 -31 0 -15 5 -26 13 -26 19 0 18 -16 -1 -24 -8 -3 -15 -17 -15 -31 0 -14 -4 -25 -10 -25 -5 0 -10 10 -10 23 0 13 -6 29 -12 35 -9 9 -9 15 -2 20 5 4 11 20 12 35 1 16 4 33 8 38 7 12 44 12 44 0z m90 -1 c0 -5 -7 -10 -15 -10 -10 0 -15 -10 -15 -30 0 -20 5 -30 15 -30 8 0 15 -4 15 -10 0 -5 -7 -10 -15 -10 -10 0 -15 -10 -15 -30 0 -30 -13 -40 -26 -19 -8 14 -8 100 1 127 6 22 55 32 55 12z m108 -8 c3 -9 -3 -11 -21 -7 -14 4 -28 2 -31 -4 -5 -7 5 -11 28 -11 29 0 36 -4 36 -20 0 -11 -11 -27 -25 -36 -23 -15 -27 -15 -50 0 -27 18 -34 63 -13 84 16 16 70 11 76 -6z m62 -9 c0 -33 9 -47 34 -56 24 -10 13 -21 -22 -22 -32 0 -39 12 -34 65 5 45 22 55 22 13z m100 -13 c0 -29 4 -40 15 -40 8 0 15 -4 15 -9 0 -5 -7 -11 -15 -15 -23 -9 -18 -43 7 -50 17 -4 20 -8 11 -17 -20 -20 -48 -6 -51 26 -2 17 -9 36 -15 44 -9 11 -9 15 1 18 7 3 12 21 12 44 0 21 5 39 10 39 6 0 10 -18 10 -40z m80 -51 c0 -68 -3 -90 -12 -87 -9 3 -14 33 -16 91 -2 73 0 87 13 87 12 0 15 -16 15 -91z m-1748 -61 c-15 -15 -26 -4 -18 18 5 13 9 15 18 6 9 -9 9 -15 0 -24z m-662 -359 c0 -5 -7 -6 -15 -3 -8 4 -15 1 -15 -5 0 -6 -7 -11 -15 -11 -8 0 -15 8 -15 17 0 11 -3 14 -10 7 -5 -5 -11 -52 -13 -104 l-3 -95 -2 101 c-2 96 -1 101 21 111 23 10 67 -2 67 -18z m1511 9 c-5 -13 -13 -23 -19 -23 -6 0 -14 -4 -19 -9 -5 -5 -3 -6 5 -2 14 8 17 -10 2 -19 -5 -3 -10 0 -10 7 0 7 -12 0 -26 -17 -36 -43 -17 -8 24 43 38 46 56 55 43 20z m36 15 c-4 -3 -10 -3 -14 0 -3 4 0 7 7 7 7 0 10 -3 7 -7z m568 -10 c5 -15 4 -16 -6 -5 -18 17 -39 15 -40 -5 -1 -16 -2 -16 -6 -1 -2 9 -14 19 -26 21 -12 2 -1 5 24 6 36 1 48 -3 54 -16z m-1768 0 c-4 -3 -10 -3 -14 0 -3 4 0 7 7 7 7 0 10 -3 7 -7z m600 -30 c-4 -3 -7 0 -7 7 0 7 3 10 7 7 3 -4 3 -10 0 -14z m1188 -3 c3 -5 4 -10 1 -10 -3 0 -8 5 -11 10 -3 6 -4 10 -1 10 3 0 8 -4 11 -10z m-1392 -37 c-7 -2 -21 -2 -30 0 -10 3 -4 5 12 5 17 0 24 -2 18 -5z m797 -7 c0 -2 -8 -10 -17 -17 -16 -13 -17 -12 -4 4 13 16 21 21 21 13z m-80 -100 c0 -3 -5 -8 -12 -12 -7 -4 -8 -3 -4 4 7 12 16 16 16 8z m808 -91 c-3 -3 -9 2 -12 12 -6 14 -5 15 5 6 7 -7 10 -15 7 -18z m-1411 -2 c-4 -3 -7 0 -7 7 0 7 3 10 7 7 3 -4 3 -10 0 -14z m-17 -28 c-7 -9 -28 -15 -49 -14 l-36 1 45 13 c25 7 47 13 49 14 2 1 -2 -6 -9 -14z m-807 -12 c-7 -2 -19 -2 -25 0 -7 3 -2 5 12 5 14 0 19 -2 13 -5z m2190 -28 c-3 -9 -8 -14 -10 -11 -3 3 -2 9 2 15 9 16 15 13 8 -4z m-2226 -11 c-3 -3 -12 -4 -19 -1 -8 3 -5 6 6 6 11 1 17 -2 13 -5z m-80 -126 c-2 -24 -4 -7 -4 37 0 44 2 63 4 43 2 -21 2 -57 0 -80z m2188 82 c-9 -16 -18 -30 -21 -30 -2 0 2 14 11 30 9 17 18 30 21 30 2 0 -2 -13 -11 -30z m-290 -10 c3 -5 4 -10 1 -10 -3 0 -8 5 -11 10 -3 6 -4 10 -1 10 3 0 8 -4 11 -10z m355 -34 c0 -3 -5 -8 -12 -12 -7 -4 -8 -3 -4 4 7 12 16 16 16 8z m-257 -23 c-7 -2 -21 -2 -30 0 -10 3 -4 5 12 5 17 0 24 -2 18 -5z m-960 -48 c-6 -10 -13 -11 -23 -5 -10 7 -11 10 -2 10 6 0 12 10 12 23 1 20 2 20 11 5 5 -10 6 -25 2 -33z"/>
</g>
<g id="layer107" fill="#1b9ef5" stroke="none">
<path d="M0 1300 l0 -1300 3200 0 3200 0 0 1300 0 1300 -3200 0 -3200 0 0 -1300z m2947 352 c32 -72 29 -109 -5 -53 l-18 29 -17 -30 c-26 -45 -39 -24 -17 27 15 34 17 51 10 71 -13 33 -13 37 2 32 7 -3 27 -37 45 -76z m1653 12 c17 -36 30 -72 30 -80 0 -27 -18 -14 -33 24 l-15 37 -7 -27 c-8 -32 -30 -54 -39 -39 -4 6 3 29 14 51 16 31 18 45 10 59 -13 25 -13 41 0 41 6 0 24 -30 40 -66z m-2860 -9 c0 -22 4 -25 40 -25 36 0 40 3 40 25 0 16 6 25 15 25 13 0 15 -14 13 -82 -2 -54 -7 -83 -15 -86 -9 -2 -13 10 -13 42 l0 46 -40 0 -40 0 0 -46 c0 -32 -4 -44 -12 -42 -9 3 -14 32 -16 86 -2 68 0 82 13 82 9 0 15 -9 15 -25z m228 8 c2 -9 -5 -11 -26 -7 -17 4 -32 1 -36 -5 -5 -7 6 -11 33 -11 34 0 41 -3 41 -20 0 -11 -11 -27 -24 -35 -52 -34 -111 30 -70 76 20 22 74 23 82 2z m62 0 c10 -17 10 -17 20 0 11 18 40 24 40 8 0 -5 -7 -14 -15 -21 -19 -16 -19 -29 1 -51 21 -23 1 -34 -22 -12 -12 13 -19 14 -22 5 -4 -13 -32 -17 -32 -4 0 4 5 13 12 20 10 10 8 19 -5 42 -16 26 -16 30 -3 30 8 0 20 -8 26 -17z m168 5 c21 -21 14 -66 -12 -83 -51 -34 -111 30 -71 75 20 22 65 26 83 8z m124 -25 c2 -26 8 -38 18 -38 10 0 16 12 18 38 4 41 22 52 22 13 0 -35 10 -56 26 -56 10 0 14 12 14 40 0 29 4 40 15 40 11 0 15 -11 15 -39 0 -49 -21 -74 -54 -62 -12 5 -28 6 -35 2 -6 -4 -25 -6 -41 -3 -29 4 -30 7 -30 53 0 36 4 49 14 49 10 0 16 -13 18 -37z m246 25 c21 -21 14 -66 -12 -83 -51 -34 -111 30 -71 75 20 22 65 26 83 8z m142 -80 c0 -67 -3 -89 -12 -86 -7 3 -14 21 -16 42 -3 29 -7 36 -19 32 -24 -10 -63 21 -63 49 0 35 25 54 70 53 l40 0 0 -90z m60 42 c0 -38 -4 -50 -15 -50 -11 0 -15 12 -15 50 0 38 4 50 15 50 11 0 15 -12 15 -50z m60 10 c0 -29 4 -40 15 -40 8 0 15 -4 15 -10 0 -5 -7 -10 -15 -10 -24 0 -19 -47 6 -53 25 -7 16 -27 -11 -27 -21 0 -40 28 -40 59 0 12 -5 21 -12 21 -9 0 -9 3 0 12 7 7 12 29 12 50 0 27 4 38 15 38 11 0 15 -11 15 -40z m280 31 c0 -5 -7 -11 -15 -15 -8 -3 -15 -17 -15 -31 0 -16 6 -25 15 -25 8 0 15 -4 15 -9 0 -5 -7 -11 -15 -15 -8 -3 -15 -17 -15 -31 0 -14 -4 -25 -10 -25 -5 0 -10 10 -10 23 0 13 -6 29 -12 36 -10 11 -10 14 0 18 6 3 12 19 12 37 0 18 3 36 7 39 10 10 43 8 43 -2z m50 -15 c0 -35 10 -56 26 -56 14 0 28 36 22 59 -2 8 3 16 10 18 8 3 12 -9 12 -41 0 -48 -17 -68 -51 -59 -16 5 -19 -1 -19 -36 0 -65 -18 -48 -22 22 -4 77 0 117 13 117 5 0 9 -11 9 -24z m190 9 c0 -11 -7 -14 -24 -9 -13 3 -27 1 -30 -5 -5 -7 5 -11 28 -11 28 0 36 -4 36 -17 -1 -41 -41 -61 -76 -38 -26 17 -33 62 -12 83 18 18 78 16 78 -3z m60 -9 c0 -35 10 -56 26 -56 10 0 14 12 14 40 0 54 27 56 32 3 2 -26 8 -38 18 -38 10 0 16 12 18 38 4 50 32 52 32 2 0 -45 -32 -80 -59 -66 -10 6 -21 8 -24 5 -3 -3 -22 -7 -41 -8 l-36 -1 0 52 c0 29 5 53 10 53 6 0 10 -11 10 -24z m250 9 c-3 -5 -15 -9 -27 -7 -12 1 -24 -2 -28 -8 -4 -6 9 -10 34 -10 44 0 51 -12 28 -44 -16 -21 -60 -24 -82 -6 -21 17 -19 67 3 79 21 13 79 10 72 -4z m187 3 c37 -31 -7 -110 -49 -87 -16 9 -18 5 -18 -36 0 -33 -4 -45 -12 -43 -9 3 -14 33 -16 90 l-3 86 43 0 c23 1 48 -4 55 -10z m121 0 c14 -14 16 -88 3 -88 -5 0 -11 18 -15 40 -10 61 -46 49 -46 -15 0 -13 -4 -27 -10 -30 -14 -9 -13 78 2 93 7 7 21 12 33 12 12 0 26 -5 33 -12z m102 3 c0 -5 -6 -11 -14 -14 -7 -3 -13 -17 -13 -31 0 -15 5 -26 13 -26 19 0 18 -16 -1 -24 -8 -3 -15 -17 -15 -31 0 -14 -4 -25 -10 -25 -5 0 -10 10 -10 23 0 13 -6 29 -12 35 -9 9 -9 15 -2 20 5 4 11 20 12 35 1 16 4 33 8 38 7 12 44 12 44 0z m90 -1 c0 -5 -7 -10 -15 -10 -10 0 -15 -10 -15 -30 0 -20 5 -30 15 -30 8 0 15 -4 15 -10 0 -5 -7 -10 -15 -10 -10 0 -15 -10 -15 -30 0 -30 -13 -40 -26 -19 -8 14 -8 100 1 127 6 22 55 32 55 12z m108 -8 c3 -9 -3 -11 -21 -7 -14 4 -28 2 -31 -4 -5 -7 5 -11 28 -11 29 0 36 -4 36 -20 0 -11 -11 -27 -25 -36 -23 -15 -27 -15 -50 0 -27 18 -34 63 -13 84 16 16 70 11 76 -6z m62 -9 c0 -33 9 -47 34 -56 24 -10 13 -21 -22 -22 -32 0 -39 12 -34 65 5 45 22 55 22 13z m100 -13 c0 -29 4 -40 15 -40 8 0 15 -4 15 -9 0 -5 -7 -11 -15 -15 -23 -9 -18 -43 7 -50 17 -4 20 -8 11 -17 -20 -20 -48 -6 -51 26 -2 17 -9 36 -15 44 -9 11 -9 15 1 18 7 3 12 21 12 44 0 21 5 39 10 39 6 0 10 -18 10 -40z m80 -51 c0 -68 -3 -90 -12 -87 -9 3 -14 33 -16 91 -2 73 0 87 13 87 12 0 15 -16 15 -91z m-1748 -61 c-15 -15 -26 -4 -18 18 5 13 9 15 18 6 9 -9 9 -15 0 -24z m-662 -455 l0 -103 145 0 145 0 0 99 c0 90 2 101 21 115 17 11 27 12 45 4 l24 -11 0 -257 0 -257 -24 -11 c-18 -8 -28 -7 -45 4 -19 14 -21 25 -21 115 l0 99 -145 0 -145 0 0 -98 c0 -63 -4 -102 -12 -110 -16 -16 -48 -15 -67 2 -14 13 -16 47 -13 264 3 246 3 249 25 259 15 7 29 7 45 0 21 -10 22 -16 22 -114z m949 101 c10 -22 9 -31 -4 -50 -15 -23 -20 -24 -140 -24 -139 0 -126 7 -127 -70 -1 -62 -4 -60 77 -60 68 0 76 -2 91 -25 15 -23 15 -27 0 -50 -14 -22 -24 -24 -92 -27 l-76 -3 -1 -63 -2 -62 131 0 c130 0 131 0 142 -25 9 -19 9 -31 0 -50 l-11 -25 -162 0 c-162 0 -163 0 -179 25 -23 36 -24 479 0 513 15 21 21 22 178 22 l163 0 12 -26z m620 2 c12 -22 7 -31 -80 -139 -52 -64 -96 -110 -98 -104 -2 6 -15 20 -28 30 -12 10 -23 23 -23 29 0 5 37 54 81 109 67 81 86 99 108 99 19 0 32 -8 40 -24z m623 -114 c43 -73 78 -137 78 -141 0 -5 -35 -69 -78 -142 l-78 -134 -161 -3 -161 -2 -81 140 -81 141 81 140 81 139 161 -2 160 -3 79 -133z m-1095 81 c-4 -3 -7 0 -7 7 0 7 3 10 7 7 3 -4 3 -10 0 -14z m218 -274 c22 -22 33 -38 25 -34 -10 3 -24 -6 -40 -27 -13 -18 -51 -63 -84 -100 -66 -75 -93 -84 -120 -43 -16 25 -16 27 26 78 66 81 142 167 148 167 3 0 24 -18 45 -41z"/>
</g>
<g id="layer108" fill="#ffffff" stroke="none">
<path d="M0 1300 l0 -1300 3200 0 3200 0 0 1300 0 1300 -3200 0 -3200 0 0 -1300z m2947 352 c32 -72 29 -109 -5 -53 l-18 29 -17 -30 c-26 -45 -39 -24 -17 27 15 34 17 51 10 71 -13 33 -13 37 2 32 7 -3 27 -37 45 -76z m1653 12 c17 -36 30 -72 30 -80 0 -27 -18 -14 -33 24 l-15 37 -7 -27 c-8 -32 -30 -54 -39 -39 -4 6 3 29 14 51 16 31 18 45 10 59 -13 25 -13 41 0 41 6 0 24 -30 40 -66z m-2860 -9 c0 -22 4 -25 40 -25 36 0 40 3 40 25 0 16 6 25 15 25 13 0 15 -14 13 -82 -2 -54 -7 -83 -15 -86 -9 -2 -13 10 -13 42 l0 46 -40 0 -40 0 0 -46 c0 -32 -4 -44 -12 -42 -9 3 -14 32 -16 86 -2 68 0 82 13 82 9 0 15 -9 15 -25z m228 8 c2 -9 -5 -11 -26 -7 -17 4 -32 1 -36 -5 -5 -7 6 -11 33 -11 34 0 41 -3 41 -20 0 -11 -11 -27 -24 -35 -52 -34 -111 30 -70 76 20 22 74 23 82 2z m62 0 c10 -17 10 -17 20 0 11 18 40 24 40 8 0 -5 -7 -14 -15 -21 -19 -16 -19 -29 1 -51 21 -23 1 -34 -22 -12 -12 13 -19 14 -22 5 -4 -13 -32 -17 -32 -4 0 4 5 13 12 20 10 10 8 19 -5 42 -16 26 -16 30 -3 30 8 0 20 -8 26 -17z m168 5 c21 -21 14 -66 -12 -83 -51 -34 -111 30 -71 75 20 22 65 26 83 8z m124 -25 c2 -26 8 -38 18 -38 10 0 16 12 18 38 4 41 22 52 22 13 0 -35 10 -56 26 -56 10 0 14 12 14 40 0 29 4 40 15 40 11 0 15 -11 15 -39 0 -49 -21 -74 -54 -62 -12 5 -28 6 -35 2 -6 -4 -25 -6 -41 -3 -29 4 -30 7 -30 53 0 36 4 49 14 49 10 0 16 -13 18 -37z m246 25 c21 -21 14 -66 -12 -83 -51 -34 -111 30 -71 75 20 22 65 26 83 8z m142 -80 c0 -67 -3 -89 -12 -86 -7 3 -14 21 -16 42 -3 29 -7 36 -19 32 -24 -10 -63 21 -63 49 0 35 25 54 70 53 l40 0 0 -90z m60 42 c0 -38 -4 -50 -15 -50 -11 0 -15 12 -15 50 0 38 4 50 15 50 11 0 15 -12 15 -50z m60 10 c0 -29 4 -40 15 -40 8 0 15 -4 15 -10 0 -5 -7 -10 -15 -10 -24 0 -19 -47 6 -53 25 -7 16 -27 -11 -27 -21 0 -40 28 -40 59 0 12 -5 21 -12 21 -9 0 -9 3 0 12 7 7 12 29 12 50 0 27 4 38 15 38 11 0 15 -11 15 -40z m280 31 c0 -5 -7 -11 -15 -15 -8 -3 -15 -17 -15 -31 0 -16 6 -25 15 -25 8 0 15 -4 15 -9 0 -5 -7 -11 -15 -15 -8 -3 -15 -17 -15 -31 0 -14 -4 -25 -10 -25 -5 0 -10 10 -10 23 0 13 -6 29 -12 36 -10 11 -10 14 0 18 6 3 12 19 12 37 0 18 3 36 7 39 10 10 43 8 43 -2z m50 -15 c0 -35 10 -56 26 -56 14 0 28 36 22 59 -2 8 3 16 10 18 8 3 12 -9 12 -41 0 -48 -17 -68 -51 -59 -16 5 -19 -1 -19 -36 0 -65 -18 -48 -22 22 -4 77 0 117 13 117 5 0 9 -11 9 -24z m190 9 c0 -11 -7 -14 -24 -9 -13 3 -27 1 -30 -5 -5 -7 5 -11 28 -11 28 0 36 -4 36 -17 -1 -41 -41 -61 -76 -38 -26 17 -33 62 -12 83 18 18 78 16 78 -3z m60 -9 c0 -35 10 -56 26 -56 10 0 14 12 14 40 0 54 27 56 32 3 2 -26 8 -38 18 -38 10 0 16 12 18 38 4 50 32 52 32 2 0 -45 -32 -80 -59 -66 -10 6 -21 8 -24 5 -3 -3 -22 -7 -41 -8 l-36 -1 0 52 c0 29 5 53 10 53 6 0 10 -11 10 -24z m250 9 c-3 -5 -15 -9 -27 -7 -12 1 -24 -2 -28 -8 -4 -6 9 -10 34 -10 44 0 51 -12 28 -44 -16 -21 -60 -24 -82 -6 -21 17 -19 67 3 79 21 13 79 10 72 -4z m187 3 c37 -31 -7 -110 -49 -87 -16 9 -18 5 -18 -36 0 -33 -4 -45 -12 -43 -9 3 -14 33 -16 90 l-3 86 43 0 c23 1 48 -4 55 -10z m121 0 c14 -14 16 -88 3 -88 -5 0 -11 18 -15 40 -10 61 -46 49 -46 -15 0 -13 -4 -27 -10 -30 -14 -9 -13 78 2 93 7 7 21 12 33 12 12 0 26 -5 33 -12z m102 3 c0 -5 -6 -11 -14 -14 -7 -3 -13 -17 -13 -31 0 -15 5 -26 13 -26 19 0 18 -16 -1 -24 -8 -3 -15 -17 -15 -31 0 -14 -4 -25 -10 -25 -5 0 -10 10 -10 23 0 13 -6 29 -12 35 -9 9 -9 15 -2 20 5 4 11 20 12 35 1 16 4 33 8 38 7 12 44 12 44 0z m90 -1 c0 -5 -7 -10 -15 -10 -10 0 -15 -10 -15 -30 0 -20 5 -30 15 -30 8 0 15 -4 15 -10 0 -5 -7 -10 -15 -10 -10 0 -15 -10 -15 -30 0 -30 -13 -40 -26 -19 -8 14 -8 100 1 127 6 22 55 32 55 12z m108 -8 c3 -9 -3 -11 -21 -7 -14 4 -28 2 -31 -4 -5 -7 5 -11 28 -11 29 0 36 -4 36 -20 0 -11 -11 -27 -25 -36 -23 -15 -27 -15 -50 0 -27 18 -34 63 -13 84 16 16 70 11 76 -6z m62 -9 c0 -33 9 -47 34 -56 24 -10 13 -21 -22 -22 -32 0 -39 12 -34 65 5 45 22 55 22 13z m100 -13 c0 -29 4 -40 15 -40 8 0 15 -4 15 -9 0 -5 -7 -11 -15 -15 -23 -9 -18 -43 7 -50 17 -4 20 -8 11 -17 -20 -20 -48 -6 -51 26 -2 17 -9 36 -15 44 -9 11 -9 15 1 18 7 3 12 21 12 44 0 21 5 39 10 39 6 0 10 -18 10 -40z m80 -51 c0 -68 -3 -90 -12 -87 -9 3 -14 33 -16 91 -2 73 0 87 13 87 12 0 15 -16 15 -91z m-1748 -61 c-15 -15 -26 -4 -18 18 5 13 9 15 18 6 9 -9 9 -15 0 -24z m-662 -455 l0 -103 145 0 145 0 0 99 c0 90 2 101 21 115 17 11 27 12 45 4 l24 -11 0 -257 0 -257 -24 -11 c-18 -8 -28 -7 -45 4 -19 14 -21 25 -21 115 l0 99 -145 0 -145 0 0 -98 c0 -63 -4 -102 -12 -110 -16 -16 -48 -15 -67 2 -14 13 -16 47 -13 264 3 246 3 249 25 259 15 7 29 7 45 0 21 -10 22 -16 22 -114z m949 101 c10 -22 9 -31 -4 -50 -15 -23 -20 -24 -140 -24 -139 0 -126 7 -127 -70 -1 -62 -4 -60 77 -60 68 0 76 -2 91 -25 15 -23 15 -27 0 -50 -14 -22 -24 -24 -92 -27 l-76 -3 -1 -63 -2 -62 131 0 c130 0 131 0 142 -25 9 -19 9 -31 0 -50 l-11 -25 -162 0 c-162 0 -163 0 -179 25 -23 36 -24 479 0 513 15 21 21 22 178 22 l163 0 12 -26z m271 -44 c35 -38 72 -83 84 -99 11 -17 24 -31 28 -31 4 0 44 45 88 100 68 82 87 100 109 100 19 0 32 -8 40 -24 13 -23 8 -31 -78 -136 -50 -61 -91 -115 -91 -120 0 -4 41 -58 90 -118 84 -104 89 -112 78 -136 -8 -18 -19 -26 -37 -26 -21 0 -43 20 -109 100 -46 55 -86 100 -91 100 -4 0 -18 -15 -31 -32 -13 -18 -51 -63 -84 -100 -66 -75 -93 -84 -120 -43 -18 28 -18 27 140 213 l37 43 -32 37 c-151 178 -160 191 -148 217 22 46 57 34 127 -45z m972 -68 c43 -73 78 -137 78 -141 0 -5 -35 -69 -78 -142 l-78 -134 -161 -3 -161 -2 -81 140 -81 141 81 140 81 139 161 -2 160 -3 79 -133z"/>
<path d="M1905 1610 c3 -5 12 -10 20 -10 8 0 17 5 20 10 4 6 -5 10 -20 10 -15 0 -24 -4 -20 -10z"/>
<path d="M2134 1646 c-9 -24 4 -48 23 -44 24 4 24 52 0 56 -9 2 -20 -4 -23 -12z"/>
<path d="M2504 1646 c-9 -24 4 -48 23 -44 24 4 24 52 0 56 -9 2 -20 -4 -23 -12z"/>
<path d="M2634 1646 c-9 -24 4 -48 23 -44 12 2 18 12 18 28 0 29 -32 41 -41 16z"/>
<path d="M3285 1610 c3 -5 15 -10 25 -10 10 0 22 5 25 10 4 6 -7 10 -25 10 -18 0 -29 -4 -25 -10z"/>
<path d="M3600 1610 c0 -5 9 -10 19 -10 11 0 23 5 26 10 4 6 -5 10 -19 10 -14 0 -26 -4 -26 -10z"/>
<path d="M3790 1645 c-17 -20 -6 -45 20 -45 17 0 21 5 18 27 -4 31 -20 40 -38 18z"/>
<path d="M4205 1610 c3 -5 15 -10 26 -10 10 0 19 5 19 10 0 6 -12 10 -26 10 -14 0 -23 -4 -19 -10z"/>
<path d="M3945 1095 c-6 -5 -33 -47 -59 -92 l-47 -82 51 -91 52 -91 111 3 111 3 48 83 c26 46 48 89 48 95 -1 7 -22 48 -48 92 l-48 80 -103 5 c-63 3 -109 1 -116 -5z"/>
</g>


</svg>