<!DOCTYPE svg PUBLIC "-//W3C//DTD SVG 20010904//EN" "http://www.w3.org/TR/2001/REC-SVG-20010904/DTD/svg10.dtd">
<svg version="1.0" xmlns="http://www.w3.org/2000/svg" width="8334px" height="8334px" viewBox="0 0 12000 12000" preserveAspectRatio="xMidYMid meet">
<g id="layer101" fill="#32a3dc" stroke="none">
 <path d="M8352 9767 c-22 -26 -168 -117 -246 -152 -221 -102 -525 -178 -886 -221 -183 -22 -788 -30 -1043 -15 -424 26 -888 85 -1417 180 -479 86 -717 111 -1061 111 -927 0 -1735 -266 -2400 -790 -143 -113 -434 -409 -549 -558 -359 -465 -581 -1003 -646 -1567 -20 -175 -15 -559 10 -705 54 -318 149 -603 304 -910 464 -923 1294 -1607 2158 -1779 215 -43 358 -55 574 -48 258 8 489 48 713 122 56 19 103 33 104 31 1 -1 14 -42 28 -91 54 -185 169 -434 290 -624 502 -792 1316 -1192 2323 -1141 1402 72 2283 759 2601 2027 21 87 42 179 46 204 4 25 10 51 14 57 4 7 63 27 132 46 611 168 1212 470 1629 816 140 117 347 331 442 457 175 233 305 501 373 773 43 167 56 284 62 530 8 340 -22 572 -109 840 -224 693 -751 1147 -1493 1285 -200 37 -372 49 -615 42 -450 -13 -896 -104 -1230 -251 -150 -66 -294 -160 -492 -322 -95 -77 -200 -159 -233 -181 -91 -61 -215 -120 -312 -148 -170 -50 -257 -59 -543 -59 -287 -1 -434 12 -795 65 -110 17 -227 34 -260 39 -525 78 -1237 96 -1770 45 -1101 -105 -1899 -458 -2120 -938 -81 -176 -84 -344 -11 -560 82 -239 253 -430 491 -550 218 -109 465 -160 1025 -212 343 -31 474 -49 596 -80 288 -73 438 -238 356 -391 -36 -68 -166 -143 -293 -170 -95 -20 -297 -20 -409 0 -46 8 -86 14 -88 12 -7 -8 307 -107 428 -135 360 -86 667 -79 843 17 237 129 310 488 162 801 -131 277 -442 511 -905 684 -254 94 -573 165 -820 183 -63 4 -101 12 -112 22 -69 59 71 251 290 396 264 176 626 299 1022 348 138 17 561 17 715 0 289 -32 634 -110 980 -222 620 -200 928 -267 1180 -258 269 10 412 78 927 441 563 396 757 482 1088 480 308 -1 549 -109 781 -350 403 -418 535 -1093 324 -1658 -194 -519 -574 -853 -1133 -995 -214 -54 -319 -65 -612 -64 -300 0 -406 11 -720 74 -235 48 -455 108 -690 189 -96 33 -176 59 -178 57 -1 -2 28 -21 65 -42 272 -152 565 -403 699 -599 118 -173 162 -290 171 -451 13 -242 -94 -465 -341 -710 -249 -246 -566 -388 -996 -446 -125 -17 -555 -16 -680 1 -451 61 -863 260 -1160 560 -154 155 -258 319 -301 477 -17 61 -20 98 -17 175 3 90 7 103 45 180 56 112 165 237 268 308 44 30 69 51 55 48 -83 -23 -292 -68 -390 -86 -997 -178 -1834 -60 -2397 336 -129 91 -331 290 -417 411 -91 128 -177 286 -234 428 -339 854 -214 1669 347 2257 346 362 816 590 1371 663 152 20 521 14 665 -10 981 -167 1924 -222 2565 -151 996 111 1591 468 1804 1083 35 102 80 307 74 339 -3 15 -4 15 -16 0z"/>
 </g>

</svg>